<?xml version="1.0" standalone="no"?>
<!DOCTYPE svg PUBLIC "-//W3C//DTD SVG 20010904//EN"
 "http://www.w3.org/TR/2001/REC-SVG-20010904/DTD/svg10.dtd">
<svg version="1.0" xmlns="http://www.w3.org/2000/svg"
 width="1024.000000pt" height="1024.000000pt" viewBox="0 0 1024.000000 1024.000000"
 preserveAspectRatio="xMidYMid meet">

<g transform="translate(0.000000,1024.000000) scale(0.100000,-0.100000)"
fill="#000000" stroke="none">
<path d="M0 5120 l0 -5120 5120 0 5120 0 0 5120 0 5120 -5120 0 -5120 0 0
-5120z m5290 3750 c512 -26 932 -124 1405 -330 278 -120 605 -319 879 -532
158 -122 448 -406 578 -566 302 -368 514 -743 679 -1205 294 -820 270 -1728
-67 -2558 -251 -620 -768 -1255 -1364 -1675 -361 -255 -847 -483 -1210 -568
-97 -23 -101 -20 -26 24 164 96 254 190 375 392 66 110 89 138 217 263 181
177 199 210 199 360 0 94 -2 105 -34 170 -44 91 -161 209 -246 251 -49 24 -72
29 -135 29 -67 0 -84 -4 -146 -35 -67 -33 -73 -34 -115 -23 -125 33 -243 1
-406 -109 -23 -15 -44 -28 -47 -28 -3 0 4 20 15 45 58 130 75 325 44 477 -50
241 -245 465 -486 561 -89 35 -164 47 -299 47 -142 0 -236 -22 -365 -83 -113
-55 -200 -127 -275 -227 -103 -140 -151 -292 -151 -482 0 -203 53 -346 195
-527 87 -112 173 -172 366 -260 44 -20 -228 -3 -317 20 -320 81 -546 264 -684
552 -64 136 -82 218 -83 392 -1 126 3 162 21 227 31 106 65 178 128 273 132
199 318 334 545 398 72 20 103 21 885 27 878 7 865 6 1073 66 429 123 785 385
1025 755 62 96 134 235 95 184 -140 -182 -297 -334 -478 -462 -317 -226 -624
-351 -939 -383 -123 -12 -1070 -13 -1089 -1 -8 5 25 10 85 14 104 6 682 59
843 78 116 13 322 52 410 78 36 10 112 38 170 61 566 227 1009 682 1186 1220
85 256 126 577 104 805 -41 429 -208 834 -487 1181 -259 321 -679 624 -1101
793 -526 212 -1249 266 -1872 141 -284 -57 -495 -124 -775 -245 -106 -46 -225
-104 -235 -115 -3 -3 -27 -16 -55 -30 -27 -14 -75 -40 -105 -59 -51 -32 -160
-101 -169 -108 -2 -1 2 -9 9 -18 18 -21 6 -29 -19 -14 -11 7 -24 10 -28 5 -4
-4 0 -12 10 -17 9 -6 17 -14 17 -19 0 -16 -22 -11 -36 7 -7 10 -16 15 -20 11
-4 -5 1 -17 11 -28 26 -29 10 -38 -19 -11 -13 12 -27 18 -30 13 -3 -5 1 -15 9
-22 8 -7 15 -16 15 -21 0 -14 -17 -11 -34 6 -8 8 -17 15 -20 15 -3 0 -6 -7 -6
-15 0 -8 5 -15 10 -15 6 0 10 -7 10 -15 0 -8 7 -15 16 -15 8 0 12 -5 9 -11 -4
-6 -19 -1 -40 15 -18 14 -35 23 -38 20 -9 -9 17 -52 29 -47 15 6 28 -14 14
-22 -6 -3 -22 3 -36 14 -31 24 -52 28 -34 6 18 -22 2 -40 -20 -20 -12 11 -20
13 -25 6 -3 -6 -1 -11 4 -11 6 0 11 -7 11 -15 0 -8 -7 -15 -15 -15 -8 0 -15 5
-15 10 0 6 -5 10 -10 10 -7 0 -7 -7 1 -21 16 -32 -4 -47 -25 -18 -9 13 -16 18
-16 11 0 -7 11 -23 25 -36 14 -13 25 -28 25 -34 0 -5 7 -12 15 -16 8 -3 15
-10 15 -16 0 -5 -7 -10 -15 -10 -8 0 -15 7 -15 15 0 8 -7 15 -15 15 -8 0 -15
5 -15 10 0 6 -7 10 -15 10 -8 0 -15 -4 -15 -10 0 -5 7 -10 15 -10 8 0 15 -7
15 -15 0 -8 -7 -15 -15 -15 -8 0 -15 -7 -15 -15 0 -8 -4 -15 -10 -15 -5 0 -10
-7 -10 -16 0 -17 -22 -14 -28 4 -2 7 4 12 13 12 11 0 15 5 11 15 -3 9 0 15 9
15 20 0 19 6 -4 29 -19 19 -41 12 -41 -14 0 -5 4 -3 10 5 5 8 12 11 16 7 11
-11 -15 -53 -42 -68 -24 -12 -33 -39 -14 -39 6 0 10 -6 10 -14 0 -8 7 -16 15
-20 8 -3 15 -10 15 -16 0 -5 -7 -10 -15 -10 -8 0 -15 -7 -15 -15 0 -8 -7 -15
-15 -15 -8 0 -15 -7 -15 -15 0 -8 -7 -15 -15 -15 -8 0 -15 -7 -15 -15 0 -8 -7
-15 -15 -15 -23 0 -18 13 15 40 16 14 29 28 30 33 0 8 -37 47 -45 47 -12 0 -3
-28 11 -34 8 -3 12 -10 9 -16 -10 -15 -35 -12 -35 5 0 8 -4 15 -10 15 -5 0
-10 -7 -10 -15 0 -8 5 -15 10 -15 6 0 10 -7 10 -15 0 -8 -7 -15 -15 -15 -8 0
-15 5 -15 10 0 6 -7 10 -15 10 -8 0 -15 -4 -15 -10 0 -5 7 -10 15 -10 8 0 15
-6 15 -14 0 -8 7 -16 15 -20 19 -7 19 -26 0 -26 -8 0 -15 5 -15 10 0 6 -7 10
-15 10 -8 0 -15 -4 -15 -10 0 -5 7 -10 15 -10 8 0 15 -7 15 -15 0 -8 7 -15 15
-15 8 0 15 -7 15 -15 0 -8 -5 -15 -10 -15 -6 0 -13 7 -16 15 -4 8 -12 15 -20
15 -8 0 -14 5 -14 10 0 6 -5 10 -11 10 -7 0 -18 8 -25 17 -7 10 -16 14 -20 10
-9 -8 60 -77 77 -77 5 0 9 -7 9 -15 0 -8 -5 -15 -10 -15 -6 0 -13 7 -16 15 -4
8 -12 15 -20 15 -8 0 -14 5 -14 10 0 6 -9 10 -20 10 -11 0 -20 7 -20 15 0 8
-4 15 -10 15 -5 0 -10 -5 -10 -11 0 -14 25 -39 40 -39 6 0 13 -7 16 -15 4 -8
12 -15 20 -15 8 0 14 -7 14 -15 0 -8 -5 -15 -10 -15 -6 0 -13 7 -16 15 -4 8
-12 15 -20 15 -8 0 -14 5 -14 10 0 6 -7 10 -15 10 -8 0 -15 -4 -15 -10 0 -5 7
-10 15 -10 8 0 15 -7 15 -15 0 -8 -9 -15 -20 -15 -11 0 -20 5 -20 10 0 6 -7
10 -15 10 -8 0 -15 -4 -15 -10 0 -5 6 -10 14 -10 8 0 16 -7 20 -15 3 -8 12
-15 21 -15 8 0 15 7 15 15 0 8 7 15 15 15 8 0 15 -7 15 -15 0 -8 7 -15 15 -15
8 0 15 -7 15 -15 0 -8 7 -15 15 -15 8 0 15 -7 15 -15 0 -13 -6 -11 -30 7 -16
12 -30 25 -30 30 0 11 -28 10 -35 -2 -3 -6 2 -13 11 -17 18 -7 75 -65 69 -71
-3 -4 -28 16 -84 65 -20 18 -41 33 -47 33 -7 0 -14 7 -18 15 -3 8 -13 15 -23
15 -12 -1 3 -20 46 -60 36 -33 62 -63 58 -66 -3 -3 -12 -1 -19 5 -49 42 -62
50 -71 44 -6 -4 -4 -11 6 -18 10 -7 17 -17 17 -24 0 -6 7 -11 15 -11 9 0 18
-7 21 -15 4 -8 12 -15 20 -15 8 0 14 -4 14 -10 0 -5 -2 -10 -5 -10 -11 0 -60
35 -82 57 -12 13 -25 23 -28 23 -3 0 -16 11 -29 25 -13 14 -29 25 -37 25 -7 0
24 -36 70 -81 46 -44 80 -84 76 -87 -4 -4 -12 0 -18 8 -20 25 -125 110 -136
110 -6 0 -11 -4 -11 -10 0 -5 7 -10 15 -10 8 0 15 -7 15 -15 0 -8 5 -15 10
-15 6 0 28 -18 50 -40 34 -34 50 -60 36 -60 -2 0 -19 15 -38 33 -57 54 -110
98 -115 93 -8 -8 29 -56 42 -56 8 0 17 -9 20 -20 3 -11 13 -20 21 -20 8 0 14
-7 14 -15 0 -8 7 -15 15 -15 8 0 15 -7 15 -15 0 -18 -30 -20 -31 -2 0 15 -103
99 -107 87 -4 -11 34 -50 48 -50 6 0 10 -5 10 -11 0 -7 12 -22 26 -35 14 -13
22 -29 19 -34 -9 -15 -25 -12 -25 4 0 8 -13 23 -30 33 -16 9 -30 22 -30 27 0
13 -73 76 -80 69 -3 -3 1 -8 8 -10 6 -3 12 -11 12 -19 0 -8 7 -14 15 -14 8 0
15 -6 15 -14 0 -8 7 -16 15 -20 16 -6 21 -26 6 -26 -6 0 -24 13 -42 30 -18 16
-35 27 -38 24 -3 -3 2 -11 12 -18 9 -7 17 -17 17 -22 0 -5 14 -18 30 -29 35
-23 38 -35 10 -42 -11 -3 -20 -10 -20 -15 0 -6 9 -8 20 -5 15 4 22 -1 26 -18
3 -13 15 -26 27 -29 18 -4 19 -8 9 -18 -11 -11 -16 -10 -26 5 -7 9 -18 17 -24
17 -5 0 -12 7 -16 15 -8 23 -46 19 -46 -4 0 -11 5 -23 12 -27 8 -5 9 -2 5 9
-7 19 -6 20 17 11 9 -3 16 -12 16 -20 0 -8 7 -14 15 -14 8 0 15 -7 15 -15 0
-22 -18 -18 -31 7 -11 20 -13 20 -24 5 -14 -20 -46 -12 -38 9 3 8 -1 14 -11
14 -21 0 -20 -3 9 -50 27 -43 32 -64 13 -57 -7 2 -12 10 -11 16 2 6 -3 11 -11
11 -7 0 -17 10 -20 23 -6 21 -7 21 -21 3 -16 -21 -11 -38 8 -30 8 3 19 -10 27
-31 7 -19 20 -35 27 -35 7 0 13 -7 13 -15 0 -20 -17 -19 -29 3 -9 16 -11 16
-25 -3 -13 -17 -15 -18 -16 -3 0 9 5 20 11 24 8 4 8 9 0 17 -8 8 -16 7 -28 -6
-16 -15 -16 -18 1 -36 10 -11 16 -27 12 -36 -8 -21 -26 -10 -26 16 0 10 -4 19
-8 19 -18 0 -20 -13 -6 -35 11 -17 12 -25 4 -30 -7 -4 -14 2 -17 14 -7 27 -33
28 -33 1 0 -11 6 -19 13 -17 6 1 12 -5 12 -13 0 -8 -8 -16 -17 -18 -11 -2 -18
3 -18 12 0 25 -14 19 -34 -14 -14 -25 -15 -34 -6 -45 7 -8 9 -22 6 -31 -5 -13
-9 -14 -21 -4 -8 7 -13 16 -10 20 3 5 -4 11 -15 15 -11 3 -20 13 -20 21 0 8
-7 17 -15 20 -8 4 -15 12 -15 19 0 7 -7 16 -16 19 -9 4 -14 13 -10 21 4 10 -1
15 -15 15 -20 0 -20 -1 -2 -30 9 -16 20 -30 24 -30 3 0 19 -19 35 -42 16 -24
35 -49 42 -57 9 -9 10 -17 4 -23 -13 -13 -32 -2 -32 18 0 8 -7 14 -15 14 -19
0 -19 -14 0 -30 21 -17 19 -30 -5 -30 -24 0 -26 -13 -5 -30 16 -13 21 -40 7
-40 -5 0 -19 12 -32 27 -16 18 -25 23 -28 14 -2 -7 6 -22 19 -34 21 -20 22
-22 5 -25 -10 -2 -27 6 -37 17 -23 25 -29 26 -29 6 0 -8 7 -15 15 -15 8 0 15
-9 15 -20 0 -22 -1 -23 -24 -14 -9 3 -16 12 -16 20 0 8 -7 14 -17 14 -15 0
-14 -2 2 -20 20 -22 14 -53 -10 -44 -8 3 -15 1 -15 -5 0 -6 -8 -11 -19 -11
-23 0 -47 -25 -31 -35 5 -3 10 1 10 10 0 13 4 14 20 5 16 -8 20 -8 18 2 -2 7
4 13 12 13 8 0 16 -8 18 -17 2 -11 -3 -18 -12 -18 -20 0 -20 -14 -1 -30 21
-17 19 -30 -5 -30 -14 0 -20 7 -20 21 0 12 -4 18 -11 13 -6 -3 -15 0 -20 7 -6
11 -9 8 -9 -8 0 -12 -5 -25 -10 -28 -8 -5 -7 -11 1 -21 11 -14 6 -45 -8 -43
-4 1 -18 -2 -30 -6 -26 -8 -31 -25 -8 -25 8 0 15 5 15 10 0 6 7 10 15 10 8 0
15 -9 15 -20 0 -11 5 -20 10 -20 6 0 10 -7 10 -15 0 -21 -12 -19 -33 6 l-18
20 -24 -23 c-13 -13 -20 -24 -15 -26 6 -2 10 -13 10 -24 0 -15 -5 -19 -20 -15
-27 7 -26 -16 2 -28 33 -15 37 -39 4 -33 -18 4 -26 1 -26 -8 0 -8 7 -14 15
-14 8 0 20 -10 26 -22 7 -13 18 -27 25 -31 21 -12 17 -37 -6 -37 -13 0 -20 7
-20 20 0 12 -7 20 -16 20 -9 0 -18 9 -21 19 -3 11 -14 21 -25 24 -22 6 -21 44
1 39 9 -2 11 3 6 15 -4 10 -10 26 -12 36 -3 9 -9 17 -14 17 -12 0 -11 -17 1
-25 20 -12 10 -27 -15 -23 -14 3 -25 1 -25 -3 0 -5 7 -9 15 -9 8 0 15 -4 15
-10 0 -12 -35 -31 -44 -23 -3 3 -6 1 -6 -6 0 -8 6 -11 16 -7 23 9 54 -2 54
-20 0 -8 7 -14 15 -14 8 0 15 -9 15 -20 0 -11 -7 -20 -15 -20 -8 0 -15 -7 -15
-15 0 -8 7 -15 15 -15 8 0 15 -9 15 -20 0 -11 -6 -20 -14 -20 -8 0 -18 9 -21
20 -3 11 -13 20 -21 20 -8 0 -14 7 -14 15 0 10 -10 15 -27 15 -26 -1 -27 -1
-8 -12 28 -16 75 -64 75 -77 0 -6 7 -11 15 -11 8 0 15 -9 15 -20 0 -11 7 -20
15 -20 8 0 15 -7 15 -15 0 -23 -12 -18 -45 18 -16 19 -38 37 -48 40 -10 4 -15
11 -12 17 3 5 0 10 -8 10 -8 0 -20 7 -27 15 -7 8 -17 15 -23 15 -5 0 16 -24
47 -54 34 -32 53 -57 47 -61 -19 -11 -48 5 -72 40 -13 19 -27 35 -31 35 -12 0
-10 -10 5 -24 6 -8 19 -24 27 -36 8 -13 23 -32 33 -42 16 -17 16 -20 3 -34 -8
-8 -19 -14 -23 -13 -28 5 -31 -2 -15 -33 9 -18 21 -36 26 -39 10 -8 -1 -29
-15 -29 -5 0 -9 9 -9 19 0 10 -7 21 -15 25 -18 6 -21 -29 -4 -40 7 -4 7 -10 1
-16 -13 -13 -32 -2 -32 18 0 8 -4 14 -10 14 -13 0 -13 -27 0 -35 14 -9 12 -35
-2 -35 -7 0 -22 -7 -32 -15 -16 -12 -17 -17 -5 -31 11 -14 11 -18 -5 -29 -10
-8 -15 -19 -11 -25 4 -6 1 -17 -5 -25 -9 -11 -10 -18 -1 -29 9 -10 8 -16 -4
-26 -11 -9 -12 -17 -4 -32 7 -14 7 -23 -2 -34 -9 -11 -9 -18 -1 -26 7 -7 7
-17 0 -34 -8 -18 -8 -27 3 -40 11 -13 11 -18 2 -21 -16 -6 -17 -39 -2 -49 8
-5 7 -9 -3 -15 -12 -6 -15 -26 -14 -78 1 -38 4 -73 8 -77 5 -4 3 -13 -2 -19
-7 -8 -7 -21 -1 -38 7 -17 7 -28 1 -32 -17 -10 -11 -25 10 -25 11 0 20 -4 20
-10 0 -5 -6 -10 -14 -10 -21 0 -30 -33 -12 -46 17 -12 22 -29 6 -19 -6 4 -10
-15 -10 -50 0 -43 3 -55 14 -53 8 2 15 -1 15 -7 0 -5 -7 -9 -15 -7 -22 5 -17
-36 6 -43 11 -4 18 -11 14 -16 -3 -5 -10 -7 -15 -4 -5 4 -9 -5 -9 -19 0 -13 6
-27 13 -29 9 -4 9 -8 1 -14 -9 -6 -8 -26 2 -78 8 -38 23 -126 33 -195 51 -333
214 -841 356 -1109 19 -36 33 -67 30 -69 -8 -8 -146 214 -209 338 -169 331
-268 653 -336 1096 -28 179 -38 603 -20 822 49 601 301 1283 658 1787 463 652
1027 1109 1738 1408 441 185 887 286 1329 300 44 2 100 4 125 5 25 1 133 -3
240 -8z m-35 -260 c311 -19 610 -73 840 -152 83 -28 161 -57 175 -64 14 -7 61
-29 104 -49 155 -69 496 -302 539 -368 8 -13 28 -37 44 -53 53 -53 142 -163
158 -194 20 -38 14 -50 -8 -17 -8 12 -34 31 -56 42 -37 16 -47 29 -83 102 -43
86 -85 127 -162 153 -20 7 -40 26 -58 55 -15 25 -32 45 -38 45 -8 0 -8 -6 0
-20 14 -26 4 -25 -62 4 -39 18 -65 38 -94 75 -37 49 -81 87 -90 78 -2 -2 12
-25 31 -50 19 -25 35 -48 35 -50 0 -3 -32 5 -72 17 -80 25 -122 62 -99 90 10
12 9 17 -8 25 -11 6 -27 11 -36 11 -9 0 -28 14 -42 30 -23 28 -71 60 -90 60
-4 0 9 -14 30 -31 20 -17 37 -34 37 -38 0 -4 -36 0 -80 9 -86 18 -139 52 -120
75 11 13 -15 25 -57 25 -12 0 -35 14 -51 30 -17 17 -38 30 -48 30 -15 0 -15
-3 4 -23 12 -13 22 -26 22 -29 0 -3 -30 -8 -66 -11 -59 -4 -70 -2 -105 21 -37
24 -39 27 -23 39 16 11 12 13 -27 13 -28 0 -53 7 -69 20 -14 11 -34 20 -45 19
-19 0 -19 0 3 -18 12 -11 22 -22 22 -25 0 -3 -10 -6 -22 -6 -13 0 -43 -6 -68
-14 -41 -12 -49 -11 -87 7 -48 24 -53 32 -21 40 46 12 8 18 -50 7 -32 -6 -66
-9 -73 -7 -8 2 -11 2 -6 0 15 -9 6 -19 -30 -32 -89 -32 -87 -23 -24 -88 32
-32 69 -64 84 -72 29 -16 27 -31 -5 -31 -17 0 -19 -4 -13 -27 13 -54 17 -189
6 -248 -17 -94 -65 -179 -145 -260 -99 -100 -189 -149 -323 -173 l-52 -9 18
26 c9 14 35 58 56 96 21 39 45 81 54 95 8 14 -54 -43 -139 -126 -152 -147
-250 -223 -360 -279 -189 -96 -386 -110 -406 -30 -9 37 3 45 77 50 146 9 291
94 497 289 118 111 148 131 252 166 112 38 182 98 229 200 32 69 35 169 7 249
-21 60 -88 136 -147 166 l-34 18 33 -37 c70 -80 110 -204 93 -287 -26 -120
-92 -180 -264 -239 -44 -16 -91 -43 -135 -78 -111 -89 -191 -129 -382 -193
-210 -70 -290 -89 -385 -89 -99 0 -114 -6 -132 -52 -14 -35 -19 -39 -42 -33
-97 24 -198 157 -208 275 -6 67 21 141 70 188 18 17 84 58 147 92 162 88 252
155 371 279 120 123 183 169 292 211 100 39 183 56 337 69 69 6 141 13 160 15
79 7 265 5 415 -4z m128 -147 c26 -9 47 -20 47 -23 0 -4 -30 -14 -67 -23 -108
-25 -156 -4 -97 42 32 25 55 26 117 4z m315 -25 c23 -13 42 -26 42 -29 0 -3
-32 -11 -71 -18 -67 -11 -72 -10 -110 12 l-40 24 38 16 c53 22 91 21 141 -5z
m-188 -44 c22 -9 40 -19 40 -23 0 -10 -84 -31 -123 -31 -35 0 -79 19 -81 35
-1 10 66 33 101 34 13 1 41 -6 63 -15z m508 -31 c23 -15 42 -31 42 -35 0 -5
-31 -8 -69 -8 -54 0 -75 5 -101 23 -55 37 -50 47 22 47 53 0 71 -5 106 -27z
m-198 -13 c22 -11 40 -24 40 -29 0 -15 -95 -23 -136 -12 -22 6 -50 18 -64 28
l-25 18 30 6 c60 13 116 9 155 -11z m-170 -65 c11 -13 3 -15 -76 -15 -133 0
-155 29 -42 55 47 11 56 10 79 -6 14 -10 32 -25 39 -34z m584 -6 c50 -13 125
-74 109 -89 -4 -5 -36 -2 -71 5 -53 11 -69 20 -97 52 -34 39 -36 57 -7 49 10
-2 39 -10 66 -17z m-149 1 c27 -10 64 -47 65 -64 0 -18 -111 4 -150 30 -22 15
-40 31 -40 35 0 12 93 11 125 -1z m-170 -16 c18 -8 41 -25 52 -36 l18 -21 -94
5 c-76 5 -97 9 -108 24 -15 21 -8 30 27 37 49 9 72 7 105 -9z m-2625 -25 c0
-6 -4 -7 -10 -4 -5 3 -10 11 -10 16 0 6 5 7 10 4 6 -3 10 -11 10 -16z m2121
11 c32 -17 22 -30 -23 -30 -55 0 -78 13 -52 29 24 13 50 14 75 1z m321 -39
c18 -16 31 -31 28 -33 -3 -2 -48 3 -100 12 -94 15 -101 22 -42 40 52 16 81 11
114 -19z m-2487 9 c3 -5 2 -10 -4 -10 -5 0 -13 5 -16 10 -3 6 -2 10 4 10 5 0
13 -4 16 -10z m-35 -20 c0 -5 -4 -10 -10 -10 -5 0 -10 5 -10 10 0 6 5 10 10
10 6 0 10 -4 10 -10z m-45 -20 c3 -5 1 -10 -4 -10 -6 0 -11 5 -11 10 0 6 2 10
4 10 3 0 8 -4 11 -10z m3031 -16 c39 -23 64 -50 64 -69 0 -12 -64 6 -132 37
-38 17 -68 35 -68 39 0 4 19 10 43 12 23 2 43 4 45 5 2 1 23 -10 48 -24z
m-700 -16 c5 -8 0 -9 -17 -5 -13 4 -37 7 -53 7 -18 0 -26 4 -20 9 23 23 73 17
90 -11z m-2366 1 c0 -5 -4 -9 -10 -9 -5 0 -10 7 -10 16 0 8 5 12 10 9 6 -3 10
-10 10 -16z m105 11 c3 -5 1 -10 -4 -10 -6 0 -11 5 -11 10 0 6 2 10 4 10 3 0
8 -4 11 -10z m2785 -5 c26 -14 57 -52 48 -60 -2 -2 -37 8 -78 21 -104 34 -102
33 -95 44 9 15 92 12 125 -5z m336 -11 c22 -11 43 -32 55 -57 l21 -40 -24 6
c-60 15 -119 49 -133 77 l-16 30 32 0 c17 0 47 -7 65 -16z m-3256 -16 c0 -6
-6 -5 -15 2 -8 7 -15 14 -15 16 0 2 7 1 15 -2 8 -4 15 -11 15 -16z m95 12 c3
-5 2 -10 -4 -10 -5 0 -13 5 -16 10 -3 6 -2 10 4 10 5 0 13 -4 16 -10z m2630
-32 l20 -20 -30 6 c-16 3 -51 9 -77 12 -53 7 -63 20 -20 27 43 7 85 -3 107
-25z m695 3 c29 -14 79 -78 80 -103 0 -4 -28 3 -62 14 -61 21 -72 29 -112 91
l-19 28 39 -7 c21 -4 55 -14 74 -23z m-3370 -1 c0 -5 -4 -10 -10 -10 -5 0 -10
5 -10 10 0 6 5 10 10 10 6 0 10 -4 10 -10z m75 -10 c3 -5 1 -10 -4 -10 -6 0
-11 5 -11 10 0 6 2 10 4 10 3 0 8 -4 11 -10z m-110 -20 c3 -5 2 -10 -4 -10 -5
0 -13 5 -16 10 -3 6 -2 10 4 10 5 0 13 -4 16 -10z m70 0 c3 -5 1 -10 -4 -10
-6 0 -11 5 -11 10 0 6 2 10 4 10 3 0 8 -4 11 -10z m2390 -21 c6 -6 -4 -7 -25
-3 -19 4 -39 11 -45 16 -7 7 2 8 25 3 19 -4 39 -11 45 -16z m1083 6 c20 -9 47
-25 59 -37 24 -22 49 -85 39 -95 -3 -4 -29 4 -57 17 -41 20 -56 34 -75 72 -13
26 -24 50 -24 53 0 9 19 6 58 -10z m-3573 -15 c3 -5 -1 -10 -9 -10 -9 0 -16 5
-16 10 0 6 4 10 9 10 6 0 13 -4 16 -10z m65 -6 c0 -8 -4 -12 -10 -9 -5 3 -10
10 -10 16 0 5 5 9 10 9 6 0 10 -7 10 -16z m3100 -5 c36 -15 51 -29 59 -50 14
-40 1 -38 -76 12 -90 59 -81 80 17 38z m-173 0 c29 -11 73 -47 73 -60 0 -4
-25 5 -56 22 -31 16 -62 29 -69 29 -8 0 -17 5 -20 10 -8 13 36 13 72 -1z
m-3033 -15 c4 -10 1 -14 -6 -12 -15 5 -23 28 -10 28 5 0 13 -7 16 -16z m3366
-4 c29 -15 47 -34 65 -70 l26 -51 -59 30 c-55 28 -112 80 -112 102 0 15 39 10
80 -11z m-524 -6 c52 -25 40 -36 -13 -13 -26 11 -50 22 -52 25 -11 11 34 2 65
-12z m-2766 -15 c0 -6 -4 -7 -10 -4 -5 3 -10 11 -10 16 0 6 5 7 10 4 6 -3 10
-11 10 -16z m-112 0 c-2 -6 -8 -10 -13 -10 -5 0 -11 4 -13 10 -2 6 4 11 13 11
9 0 15 -5 13 -11z m72 -15 c0 -8 -4 -12 -10 -9 -5 3 -10 10 -10 16 0 5 5 9 10
9 6 0 10 -7 10 -16z m3475 -5 c57 -21 81 -46 87 -89 3 -23 0 -25 -30 -23 -18
0 -43 9 -54 20 -37 32 -82 113 -63 113 2 0 29 -9 60 -21z m354 -83 c13 -25 21
-49 18 -52 -3 -4 -30 7 -59 23 -53 30 -70 52 -84 107 l-7 30 54 -31 c41 -23
60 -42 78 -77z m-3864 46 c-8 -9 -35 20 -28 31 4 6 11 3 19 -8 8 -10 12 -21 9
-23z m120 28 c3 -5 1 -10 -4 -10 -6 0 -11 5 -11 10 0 6 2 10 4 10 3 0 8 -4 11
-10z m2510 0 l20 -9 -20 0 c-11 0 -29 4 -40 9 l-20 9 20 0 c11 0 29 -4 40 -9z
m-2695 -20 c0 -5 -4 -10 -10 -10 -5 0 -10 5 -10 10 0 6 5 10 10 10 6 0 10 -4
10 -10z m140 -11 c0 -6 -4 -7 -10 -4 -5 3 -10 11 -10 16 0 6 5 7 10 4 6 -3 10
-11 10 -16z m-232 -17 c2 -7 -3 -12 -12 -12 -9 0 -16 7 -16 16 0 17 22 14 28
-4z m62 -3 c0 -5 -7 -9 -15 -9 -15 0 -20 12 -9 23 8 8 24 -1 24 -14z m60 1 c0
-5 -4 -10 -10 -10 -5 0 -10 5 -10 10 0 6 5 10 10 10 6 0 10 -4 10 -10z m70 0
c0 -5 -4 -10 -10 -10 -5 0 -10 5 -10 10 0 6 5 10 10 10 6 0 10 -4 10 -10z
m3655 -20 c48 -28 54 -35 65 -81 7 -27 11 -52 9 -54 -2 -2 -29 9 -59 23 -52
26 -55 30 -71 85 -10 35 -13 57 -7 57 6 0 34 -14 63 -30z m-473 -37 c30 -29
39 -56 11 -31 -10 9 -44 29 -76 45 -31 16 -54 32 -51 36 10 10 88 -23 116 -50z
m-3412 32 c0 -8 -4 -15 -9 -15 -13 0 -22 16 -14 24 11 11 23 6 23 -9z m3149 1
c32 -17 59 -46 43 -46 -6 0 -14 5 -17 10 -3 6 -23 19 -43 30 -20 10 -31 19
-24 20 7 0 25 -6 41 -14z m-3084 -6 c3 -5 -1 -10 -9 -10 -9 0 -16 5 -16 10 0
6 4 10 9 10 6 0 13 -4 16 -10z m65 0 c0 -5 -7 -10 -15 -10 -8 0 -15 5 -15 10
0 6 7 10 15 10 8 0 15 -4 15 -10z m60 0 c0 -5 -4 -10 -10 -10 -5 0 -10 5 -10
10 0 6 5 10 10 10 6 0 10 -4 10 -10z m3409 -15 c17 -8 37 -25 45 -38 20 -31
29 -67 18 -67 -13 0 -192 118 -192 126 0 12 97 -4 129 -21z m-3631 -13 c2 -7
-3 -12 -12 -12 -9 0 -16 7 -16 16 0 17 22 14 28 -4z m59 -8 c-9 -9 -28 6 -21
18 4 6 10 6 17 -1 6 -6 8 -13 4 -17z m59 -1 c-10 -10 -19 5 -10 18 6 11 8 11
12 0 2 -7 1 -15 -2 -18z m74 7 c0 -5 -4 -10 -10 -10 -5 0 -10 5 -10 10 0 6 5
10 10 10 6 0 10 -4 10 -10z m65 0 c3 -5 1 -10 -4 -10 -6 0 -11 5 -11 10 0 6 2
10 4 10 3 0 8 -4 11 -10z m-228 -36 c-9 -9 -28 6 -21 18 4 6 10 6 17 -1 6 -6
8 -13 4 -17z m3764 0 c14 -7 30 -19 36 -26 12 -14 28 -98 19 -98 -3 0 -22 8
-42 17 -25 12 -43 32 -60 65 -13 26 -24 52 -24 58 0 12 28 6 71 -16z m285 -6
c51 -35 68 -71 62 -129 l-3 -30 -48 33 c-34 24 -50 42 -56 68 -27 106 -27 106
45 58z m-3979 7 c8 -9 13 -19 10 -22 -6 -5 -37 21 -37 31 0 10 11 6 27 -9z
m53 5 c0 -5 -4 -10 -10 -10 -5 0 -10 5 -10 10 0 6 5 10 10 10 6 0 10 -4 10
-10z m70 0 c0 -5 -4 -10 -10 -10 -5 0 -10 5 -10 10 0 6 5 10 10 10 6 0 10 -4
10 -10z m-160 -35 c7 -8 8 -15 2 -15 -5 0 -15 7 -22 15 -7 8 -8 15 -2 15 5 0
15 -7 22 -15z m120 5 c0 -5 -5 -10 -11 -10 -5 0 -7 5 -4 10 3 6 8 10 11 10 2
0 4 -4 4 -10z m-210 -31 c0 -5 -7 -9 -15 -9 -15 0 -20 12 -9 23 8 8 24 -1 24
-14z m65 -17 c-8 -9 -35 20 -28 31 4 6 11 3 19 -8 8 -10 12 -21 9 -23z m109
22 c5 -14 4 -15 -9 -4 -17 14 -19 20 -6 20 5 0 12 -7 15 -16z m3166 -25 l35
-30 -40 27 c-22 16 -42 29 -44 31 -2 2 0 3 5 3 5 0 25 -14 44 -31z m-3210 11
c0 -5 -4 -10 -10 -10 -5 0 -10 5 -10 10 0 6 5 10 10 10 6 0 10 -4 10 -10z
m3876 -47 c19 -17 24 -32 24 -68 0 -25 -3 -45 -7 -45 -21 1 -89 48 -100 70
-13 26 -17 82 -7 93 8 8 57 -19 90 -50z m-4036 27 c0 -5 -7 -10 -15 -10 -8 0
-15 5 -15 10 0 6 7 10 15 10 8 0 15 -4 15 -10z m65 -1 c12 -19 -5 -23 -22 -6
-16 16 -16 17 -1 17 9 0 20 -5 23 -11z m3518 -30 c42 -46 32 -56 -15 -14 -65
58 -66 58 -38 50 14 -3 37 -20 53 -36z m-3668 13 c0 -18 -20 -15 -23 4 -3 10
1 15 10 12 7 -3 13 -10 13 -16z m215 8 c0 -5 -2 -10 -4 -10 -3 0 -8 5 -11 10
-3 6 -1 10 4 10 6 0 11 -4 11 -10z m4167 -23 c24 -21 57 -106 51 -132 -2 -13
-9 -11 -38 10 -19 15 -40 29 -47 33 -7 4 -16 33 -21 65 -9 56 -8 57 12 51 12
-3 31 -15 43 -27z m-4327 7 c0 -8 -32 -33 -42 -34 -5 0 -8 5 -8 10 0 6 7 10
16 10 8 0 12 5 9 10 -3 6 1 10 9 10 9 0 16 -3 16 -6z m60 -10 c0 -8 -4 -12
-10 -9 -5 3 -10 10 -10 16 0 5 5 9 10 9 6 0 10 -7 10 -16z m70 -4 c0 -5 -4
-10 -9 -10 -6 0 -13 5 -16 10 -3 6 1 10 9 10 9 0 16 -4 16 -10z m3692 -27 c39
-21 50 -34 63 -71 8 -25 15 -47 15 -49 0 -2 -28 25 -62 60 -35 35 -74 71 -88
80 l-25 18 25 -7 c14 -3 46 -18 72 -31z m-3792 6 c0 -5 -4 -9 -10 -9 -5 0 -10
7 -10 16 0 8 5 12 10 9 6 -3 10 -10 10 -16z m220 17 c0 -3 -4 -8 -10 -11 -5
-3 -10 -1 -10 4 0 6 5 11 10 11 6 0 10 -2 10 -4z m-156 -22 c4 -10 1 -14 -6
-12 -15 5 -23 28 -10 28 5 0 13 -7 16 -16z m4090 -24 c51 -35 73 -78 60 -120
l-9 -30 -45 30 c-24 16 -48 37 -52 47 -8 22 -10 103 -2 103 3 0 25 -13 48 -30z
m-4180 -1 c-8 -14 -24 -10 -24 6 0 9 6 12 15 9 8 -4 12 -10 9 -15z m56 1 c0
-5 -4 -10 -10 -10 -5 0 -10 5 -10 10 0 6 5 10 10 10 6 0 10 -4 10 -10z m65 0
c3 -5 1 -10 -4 -10 -6 0 -11 5 -11 10 0 6 2 10 4 10 3 0 8 -4 11 -10z m70 0
c3 -5 1 -10 -4 -10 -6 0 -11 5 -11 10 0 6 2 10 4 10 3 0 8 -4 11 -10z m4288
-98 c13 -26 28 -60 31 -77 l7 -30 -41 40 c-30 30 -46 58 -60 104 l-19 64 28
-27 c16 -15 40 -49 54 -74z m-4505 69 c3 -8 -1 -12 -9 -9 -7 2 -15 10 -17 17
-3 8 1 12 9 9 7 -2 15 -10 17 -17z m52 -1 c0 -5 -4 -10 -10 -10 -5 0 -10 5
-10 10 0 6 5 10 10 10 6 0 10 -4 10 -10z m-80 -26 c0 -9 -5 -14 -12 -12 -18 6
-21 28 -4 28 9 0 16 -7 16 -16z m110 -5 c0 -6 -4 -7 -10 -4 -5 3 -10 11 -10
16 0 6 5 7 10 4 6 -3 10 -11 10 -16z m3960 -4 c27 -14 53 -33 58 -42 16 -31
23 -103 11 -103 -34 0 -111 88 -124 143 -9 33 -7 33 55 2z m-4004 -22 c-4 -4
-11 -1 -16 7 -16 25 -11 35 7 17 9 -9 13 -20 9 -24z m109 27 c3 -5 1 -10 -4
-10 -6 0 -11 5 -11 10 0 6 2 10 4 10 3 0 8 -4 11 -10z m-205 -26 c0 -9 -5 -14
-12 -12 -18 6 -21 28 -4 28 9 0 16 -7 16 -16z m3784 -31 c24 -51 15 -50 -16 2
-15 24 -21 42 -14 39 7 -3 20 -21 30 -41z m667 -12 c14 -17 19 -40 19 -83 l0
-59 -49 42 c-43 37 -51 49 -56 90 -4 27 -4 53 0 59 8 13 60 -16 86 -49z
m-4387 34 c3 -9 0 -15 -8 -15 -8 0 -16 7 -20 15 -3 9 0 15 8 15 8 0 16 -7 20
-15z m106 5 c0 -5 -2 -10 -4 -10 -3 0 -8 5 -11 10 -3 6 -1 10 4 10 6 0 11 -4
11 -10z m-195 -19 c10 -17 -12 -21 -25 -6 -10 12 -10 15 3 15 9 0 18 -4 22 -9z
m160 -1 c3 -5 -1 -10 -9 -10 -9 0 -16 5 -16 10 0 6 4 10 9 10 6 0 13 -4 16
-10z m-108 -26 c-9 -9 -28 6 -21 18 4 6 10 6 17 -1 6 -6 8 -13 4 -17z m-87 1
c0 -8 -4 -15 -9 -15 -13 0 -22 16 -14 24 11 11 23 6 23 -9z m160 -5 c0 -5 -4
-10 -9 -10 -6 0 -13 5 -16 10 -3 6 1 10 9 10 9 0 16 -4 16 -10z m70 -11 c0 -6
-4 -7 -10 -4 -5 3 -10 11 -10 16 0 6 5 7 10 4 6 -3 10 -11 10 -16z m4102 -12
c46 -35 56 -66 43 -135 l-6 -35 -40 39 c-26 25 -41 50 -44 73 -3 20 -8 48 -10
64 -6 35 4 34 57 -6z m-4272 13 c0 -5 -4 -10 -10 -10 -5 0 -10 5 -10 10 0 6 5
10 10 10 6 0 10 -4 10 -10z m60 -10 c0 -5 -4 -10 -10 -10 -5 0 -10 5 -10 10 0
6 5 10 10 10 6 0 10 -4 10 -10z m3442 -105 c126 -95 238 -269 290 -450 20 -69
23 -103 23 -250 0 -146 -4 -182 -23 -254 -91 -331 -371 -624 -706 -736 -183
-61 -140 -58 -936 -65 l-735 -8 -110 -25 c-412 -95 -758 -287 -1055 -586 -190
-191 -299 -343 -412 -576 -32 -67 -71 -159 -87 -205 -43 -124 -37 -65 8 91 95
323 226 556 439 780 300 315 641 512 1067 616 l110 26 740 7 c713 6 743 7 821
28 318 83 544 262 674 533 67 141 84 220 83 394 0 133 -3 160 -27 240 -50 167
-153 346 -285 496 l-55 61 55 -33 c29 -19 84 -57 121 -84z m-3532 95 c0 -5 -4
-10 -10 -10 -5 0 -10 5 -10 10 0 6 5 10 10 10 6 0 10 -4 10 -10z m155 0 c3 -5
1 -10 -4 -10 -6 0 -11 5 -11 10 0 6 2 10 4 10 3 0 8 -4 11 -10z m3845 -35 c12
-24 20 -53 18 -62 -3 -12 -15 3 -35 45 -22 42 -27 62 -18 62 7 0 23 -20 35
-45z m-2720 33 c0 -2 -11 -30 -25 -63 -92 -225 87 -368 490 -393 l130 -8 -90
-17 c-49 -9 -115 -17 -145 -17 l-55 0 44 -23 c48 -24 163 -126 212 -189 l32
-40 -74 50 c-41 27 -101 64 -134 83 -57 32 -59 32 -42 9 32 -45 67 -125 77
-180 13 -68 13 -137 0 -145 -6 -4 -10 6 -10 22 -1 43 -42 152 -82 213 -60 95
-137 169 -255 246 -118 78 -149 110 -184 189 -25 57 -23 152 6 223 17 40 19
42 61 42 24 0 44 -1 44 -2z m-1309 -21 c-1 -12 -15 -9 -19 4 -3 6 1 10 8 8 6
-3 11 -8 11 -12z m89 3 c0 -5 -7 -10 -15 -10 -8 0 -15 5 -15 10 0 6 7 10 15
10 8 0 15 -4 15 -10z m4531 -42 c11 -22 23 -66 26 -97 l6 -56 -39 45 c-22 24
-39 50 -38 57 0 7 1 34 2 59 2 53 13 51 43 -8z m-4643 11 c-2 -6 -8 -10 -13
-10 -5 0 -11 4 -13 10 -2 6 4 11 13 11 9 0 15 -5 13 -11z m72 1 c0 -5 -4 -10
-9 -10 -6 0 -13 5 -16 10 -3 6 1 10 9 10 9 0 16 -4 16 -10z m4159 -114 l-1
-51 -28 60 c-15 33 -31 71 -35 85 -7 24 -5 23 29 -9 32 -32 36 -40 35 -85z
m-4269 79 c0 -8 -4 -15 -10 -15 -5 0 -10 7 -10 15 0 8 5 15 10 15 6 0 10 -7
10 -15z m80 5 c0 -5 -7 -10 -15 -10 -8 0 -15 5 -15 10 0 6 7 10 15 10 8 0 15
-4 15 -10z m185 0 c3 -5 1 -10 -4 -10 -6 0 -11 5 -11 10 0 6 2 10 4 10 3 0 8
-4 11 -10z m4277 -27 c36 -35 38 -41 38 -98 0 -88 -8 -92 -67 -34 -47 46 -51
52 -43 82 4 18 11 44 14 60 4 15 9 27 13 27 4 0 24 -17 45 -37z m-4500 -8 c0
-5 -5 -11 -11 -13 -6 -2 -11 4 -11 13 0 9 5 15 11 13 6 -2 11 -8 11 -13z m38
-36 c0 -6 -4 -7 -10 -4 -5 3 -10 11 -10 16 0 6 5 7 10 4 6 -3 10 -11 10 -16z
m4726 -97 c9 -40 14 -75 11 -78 -14 -14 -45 67 -50 131 -5 62 -4 67 9 45 7
-14 21 -58 30 -98z m-431 74 c37 -28 45 -59 36 -128 l-6 -48 -40 53 c-37 47
-40 57 -37 100 2 26 7 47 10 47 3 0 20 -11 37 -24z m-4340 4 c3 -5 1 -10 -4
-10 -6 0 -11 5 -11 10 0 6 2 10 4 10 3 0 8 -4 11 -10z m4035 -45 c0 -17 -2
-17 -10 -5 -5 8 -10 24 -10 35 0 17 2 17 10 5 5 -8 10 -24 10 -35z m-4000 15
c0 -5 -4 -10 -10 -10 -5 0 -10 5 -10 10 0 6 5 10 10 10 6 0 10 -4 10 -10z
m4610 -132 c3 -43 2 -78 -1 -78 -3 0 -20 18 -38 40 -30 38 -32 45 -26 93 11
90 14 95 39 56 15 -24 22 -56 26 -111z m-4724 105 c-7 -7 -26 7 -26 19 0 6 6
6 15 -2 9 -7 13 -15 11 -17z m74 -3 c0 -5 -2 -10 -4 -10 -3 0 -8 5 -11 10 -3
6 -1 10 4 10 6 0 11 -4 11 -10z m-40 -21 c0 -5 -4 -9 -10 -9 -5 0 -10 7 -10
16 0 8 5 12 10 9 6 -3 10 -10 10 -16z m75 1 c3 -5 1 -10 -4 -10 -6 0 -11 5
-11 10 0 6 2 10 4 10 3 0 8 -4 11 -10z m2616 0 c179 -33 340 -204 369 -392 17
-112 -12 -248 -74 -345 -36 -58 -125 -136 -186 -165 -255 -119 -548 -6 -650
252 -73 185 -31 380 111 523 117 117 259 159 430 127z m1537 -23 c7 -15 12
-42 10 -60 -3 -29 -5 -27 -24 31 -21 62 -12 81 14 29z m-4267 0 c-1 -12 -15
-9 -19 4 -3 6 1 10 8 8 6 -3 11 -8 11 -12z m74 -7 c3 -5 1 -10 -4 -10 -6 0
-11 5 -11 10 0 6 2 10 4 10 3 0 8 -4 11 -10z m4513 -121 c-6 -30 -14 -58 -18
-62 -4 -5 -22 11 -41 34 -27 35 -33 49 -30 83 2 22 8 50 13 60 10 18 13 17 48
-21 l38 -40 -10 -54z m-4618 90 c0 -5 -4 -9 -10 -9 -5 0 -10 7 -10 16 0 8 5
12 10 9 6 -3 10 -10 10 -16z m70 1 c0 -5 -4 -10 -10 -10 -5 0 -10 5 -10 10 0
6 5 10 10 10 6 0 10 -4 10 -10z m-103 -36 c-9 -9 -28 6 -21 18 4 6 10 6 17 -1
6 -6 8 -13 4 -17z m63 5 c0 -6 -4 -7 -10 -4 -5 3 -10 11 -10 16 0 6 5 7 10 4
6 -3 10 -11 10 -16z m4410 -95 c0 -30 -4 -54 -8 -54 -19 0 -42 61 -42 112 l1
53 24 -28 c20 -23 25 -39 25 -83z m-4625 60 c20 -31 13 -63 -10 -44 -7 6 -11
18 -8 26 3 8 0 14 -6 14 -6 0 -11 7 -11 15 0 23 16 18 35 -11z m5034 -114 l1
-35 -21 25 c-16 20 -19 34 -14 73 9 78 19 88 26 27 4 -30 7 -71 8 -90z m-4918
117 c-1 -12 -15 -9 -19 4 -3 6 1 10 8 8 6 -3 11 -8 11 -12z m69 3 c0 -5 -4
-10 -10 -10 -5 0 -10 5 -10 10 0 6 5 10 10 10 6 0 10 -4 10 -10z m60 0 c0 -5
-2 -10 -4 -10 -3 0 -8 5 -11 10 -3 6 -1 10 4 10 6 0 11 -4 11 -10z m-162 -38
c2 -7 -3 -12 -12 -12 -9 0 -16 7 -16 16 0 17 22 14 28 -4z m72 -3 c0 -5 -4 -9
-10 -9 -5 0 -10 7 -10 16 0 8 5 12 10 9 6 -3 10 -10 10 -16z m4754 -99 c-4
-36 -7 -73 -6 -84 0 -10 -1 -17 -2 -15 -25 27 -76 102 -76 112 0 6 8 33 17 59
l17 48 29 -28 c28 -26 28 -29 21 -92z m-4864 64 c0 -9 -5 -14 -12 -12 -18 6
-21 28 -4 28 9 0 16 -7 16 -16z m70 1 c0 -8 -4 -15 -10 -15 -5 0 -10 7 -10 15
0 8 5 15 10 15 6 0 10 -7 10 -15z m75 5 c3 -5 -1 -10 -10 -10 -9 0 -13 5 -10
10 3 6 8 10 10 10 2 0 7 -4 10 -10z m4560 -123 c-10 -80 -14 -82 -51 -30 -35
49 -36 60 -13 120 l11 28 30 -35 c26 -31 29 -40 23 -83z m-4675 83 c0 -5 -4
-10 -10 -10 -5 0 -10 5 -10 10 0 6 5 10 10 10 6 0 10 -4 10 -10z m70 0 c0 -5
-4 -10 -10 -10 -5 0 -10 5 -10 10 0 6 5 10 10 10 6 0 10 -4 10 -10z m5008
-109 c4 -50 6 -91 5 -91 -1 0 -12 18 -23 39 -17 35 -18 46 -8 95 6 31 13 55
15 52 2 -2 7 -45 11 -95z m-5108 69 c0 -5 -7 -10 -15 -10 -8 0 -15 5 -15 10 0
6 7 10 15 10 8 0 15 -4 15 -10z m70 0 c0 -5 -4 -10 -10 -10 -5 0 -10 5 -10 10
0 6 5 10 10 10 6 0 10 -4 10 -10z m4460 -94 c0 -58 0 -59 -20 -41 -16 14 -20
31 -20 75 0 31 3 60 7 64 14 14 32 -41 33 -98z m-4640 69 c0 -8 -4 -15 -9 -15
-13 0 -22 16 -14 24 11 11 23 6 23 -9z m72 -7 c-9 -9 -15 -9 -24 0 -9 9 -7 12
12 12 19 0 21 -3 12 -12z m68 2 c0 -5 -4 -10 -10 -10 -5 0 -10 5 -10 10 0 6 5
10 10 10 6 0 10 -4 10 -10z m4908 -96 l3 -99 -26 50 c-23 47 -24 54 -13 103
18 81 33 59 36 -54z m-5017 73 c-1 -12 -15 -9 -19 4 -3 6 1 10 8 8 6 -3 11 -8
11 -12z m69 -13 c0 -8 -4 -12 -10 -9 -5 3 -10 10 -10 16 0 5 5 9 10 9 6 0 10
-7 10 -16z m70 6 c0 -5 -4 -10 -10 -10 -5 0 -10 5 -10 10 0 6 5 10 10 10 6 0
10 -4 10 -10z m4730 -26 c24 -38 24 -87 0 -149 l-11 -30 -29 50 -29 50 16 58
c9 31 20 57 24 57 4 0 17 -16 29 -36z m-4900 -5 c0 -5 -4 -9 -10 -9 -5 0 -10
7 -10 16 0 8 5 12 10 9 6 -3 10 -10 10 -16z m60 1 c0 -5 -4 -10 -10 -10 -5 0
-10 5 -10 10 0 6 5 10 10 10 6 0 10 -4 10 -10z m80 -4 c0 -3 -4 -8 -10 -11 -5
-3 -10 -1 -10 4 0 6 5 11 10 11 6 0 10 -2 10 -4z m4603 -39 l26 -34 -17 -61
c-9 -34 -19 -62 -23 -62 -4 0 -17 21 -29 46 -19 42 -20 52 -10 95 7 27 16 49
20 49 4 0 19 -15 33 -33z m-4713 2 c0 -6 -4 -7 -10 -4 -5 3 -10 11 -10 16 0 6
5 7 10 4 6 -3 10 -11 10 -16z m70 1 c0 -5 -4 -10 -10 -10 -5 0 -10 5 -10 10 0
6 5 10 10 10 6 0 10 -4 10 -10z m65 0 c3 -5 1 -10 -4 -10 -6 0 -11 5 -11 10 0
6 2 10 4 10 3 0 8 -4 11 -10z m-217 -32 c17 -17 15 -28 -4 -21 -9 3 -20 0 -24
-8 -5 -7 -12 -11 -15 -7 -7 6 16 48 25 48 3 0 11 -5 18 -12z m52 2 c0 -5 -4
-10 -10 -10 -5 0 -10 5 -10 10 0 6 5 10 10 10 6 0 10 -4 10 -10z m70 0 c0 -5
-4 -10 -10 -10 -5 0 -10 5 -10 10 0 6 5 10 10 10 6 0 10 -4 10 -10z m-40 -30
c0 -5 -2 -10 -4 -10 -3 0 -8 5 -11 10 -3 6 -1 10 4 10 6 0 11 -4 11 -10z
m5106 -86 l-1 -96 -17 39 c-9 21 -17 48 -17 61 -1 21 24 92 32 92 2 0 3 -43 3
-96z m-700 60 c1 -9 0 -13 -4 -10 -3 4 -7 14 -8 22 -1 9 0 13 4 10 3 -4 7 -14
8 -22z m560 -10 c13 -31 13 -42 -1 -95 -8 -34 -15 -63 -15 -65 0 -14 -23 12
-41 48 l-21 40 24 54 c13 29 27 54 31 54 4 0 15 -16 23 -36z m-5106 11 c0 -8
-4 -15 -10 -15 -5 0 -10 7 -10 15 0 8 5 15 10 15 6 0 10 -7 10 -15z m4585 -5
c-4 -6 -1 -17 5 -25 10 -12 9 -15 -2 -15 -10 0 -14 8 -13 23 3 26 3 27 11 27
3 0 2 -5 -1 -10z m-4525 -10 c0 -5 -4 -10 -10 -10 -5 0 -10 5 -10 10 0 6 5 10
10 10 6 0 10 -4 10 -10z m-150 -20 c0 -11 -7 -20 -15 -20 -8 0 -15 9 -15 20 0
11 7 20 15 20 8 0 15 -9 15 -20z m60 0 c0 -21 -15 -27 -25 -10 -7 12 2 30 16
30 5 0 9 -9 9 -20z m4976 -22 c15 -29 15 -35 -2 -85 -10 -29 -22 -53 -26 -53
-4 0 -19 20 -34 45 l-26 45 27 45 c28 49 37 50 61 3z m-4921 23 c3 -5 1 -12
-5 -16 -5 -3 -10 1 -10 9 0 18 6 21 15 7z m4529 -16 c-5 -11 -2 -13 10 -9 9 3
16 1 16 -4 0 -6 -10 -9 -21 -7 -30 6 -36 14 -19 25 20 13 20 12 14 -5z m210
-13 c14 -28 13 -40 -10 -149 -3 -15 -9 -20 -19 -17 -19 8 -19 3 0 -32 32 -62
16 -166 -37 -233 -17 -22 -17 -26 -3 -33 9 -5 15 -23 15 -42 0 -41 -71 -156
-97 -156 -15 0 -18 -10 -19 -57 -1 -52 -3 -59 -42 -94 -22 -21 -46 -47 -52
-56 -8 -15 -9 -13 -4 10 4 16 2 27 -5 27 -12 0 -41 -52 -41 -75 0 -8 -6 -15
-14 -15 -19 0 -73 -46 -64 -55 3 -4 16 -1 28 5 30 16 50 6 43 -22 -8 -34 -32
-57 -85 -84 l-48 -24 0 37 0 38 -26 -32 c-14 -18 -34 -33 -44 -33 -10 0 -28
-9 -41 -20 l-24 -19 42 -1 c36 0 40 -3 36 -19 -8 -29 -44 -58 -88 -70 -56 -15
-58 -15 -51 19 7 35 -3 38 -30 9 -10 -12 -30 -26 -44 -31 l-25 -10 28 -13 29
-12 -43 -36 c-62 -54 -149 -64 -134 -17 8 25 -5 25 -38 0 -14 -11 -37 -20 -50
-20 -14 0 -29 -4 -32 -10 -3 -5 3 -10 14 -10 32 0 25 -15 -21 -49 -45 -33 -88
-40 -133 -19 l-26 12 23 19 23 19 -30 -7 c-16 -4 -37 -13 -45 -20 -11 -10 -28
-12 -53 -8 -24 4 -37 2 -37 -6 0 -6 6 -11 14 -11 7 0 18 -6 24 -13 8 -10 -1
-19 -38 -40 -45 -26 -51 -26 -99 -15 -28 6 -51 14 -51 17 0 12 16 27 40 38 38
18 1 15 -53 -3 -43 -15 -51 -15 -87 0 -42 17 -120 22 -120 8 0 -5 23 -14 52
-21 l51 -14 -24 -18 c-13 -11 -41 -24 -61 -30 -32 -10 -45 -9 -99 12 l-63 23
60 27 c69 32 47 38 -48 14 -57 -15 -62 -15 -102 5 -24 11 -62 20 -90 20 -58 0
-53 -15 10 -31 24 -6 46 -15 49 -19 3 -4 -27 -18 -65 -31 -71 -23 -71 -23
-126 -4 -30 10 -57 22 -60 26 -7 13 52 39 86 39 20 0 29 4 24 11 -7 13 -74 5
-132 -15 -32 -11 -43 -11 -80 5 -47 20 -127 25 -137 9 -3 -5 -19 -10 -36 -10
-16 0 -53 -13 -82 -30 -59 -33 -73 -35 -148 -19 l-53 11 28 15 c15 8 26 16 24
18 -6 6 -92 -17 -102 -26 -6 -5 -21 -9 -35 -9 -15 0 -33 -5 -41 -10 -12 -8
-11 -10 7 -10 12 0 29 -3 38 -6 13 -5 12 -8 -7 -19 -13 -7 -45 -24 -72 -39
-39 -20 -57 -25 -85 -20 -20 4 -38 9 -41 11 -3 3 11 17 30 33 l34 28 -79 -21
c-72 -20 -77 -22 -46 -27 33 -5 33 -5 14 -23 -11 -9 -59 -30 -106 -45 l-87
-28 15 23 c9 13 12 23 7 23 -16 0 -75 -49 -86 -72 -6 -13 -42 -39 -86 -60 -85
-43 -90 -44 -90 -22 0 17 -99 -66 -128 -107 l-16 -24 26 18 c43 27 51 20 26
-25 -23 -43 -113 -138 -131 -138 -5 0 -7 14 -5 30 5 35 8 37 -71 -54 -28 -33
-51 -63 -51 -67 0 -5 16 1 35 13 20 11 39 18 42 15 6 -7 -67 -139 -102 -183
l-23 -29 -9 35 -9 35 -22 -56 c-11 -31 -41 -88 -66 -127 -53 -81 -61 -113 -13
-51 17 23 42 49 55 57 21 14 22 13 22 -19 0 -38 -58 -199 -72 -199 -4 0 -11
14 -14 30 -4 17 -10 30 -14 30 -8 0 -72 -211 -66 -218 3 -2 17 15 33 39 l28
43 3 -72 c2 -46 -3 -88 -13 -117 -8 -25 -15 -54 -15 -65 0 -10 -4 -21 -8 -24
-10 -6 -42 100 -42 136 0 33 -11 68 -21 68 -11 0 -29 -68 -23 -85 3 -8 11 -12
17 -9 9 3 11 -28 9 -118 -2 -68 -3 -140 -3 -160 2 -48 -14 -56 -34 -18 -8 16
-18 30 -20 30 -3 0 -5 -60 -4 -132 1 -129 1 -132 14 -85 23 83 33 78 45 -20
23 -169 26 -203 20 -203 -4 0 -17 18 -29 41 -13 22 -25 38 -28 35 -5 -5 34
-206 42 -214 3 -3 5 9 5 26 0 21 5 32 15 32 13 0 19 -15 46 -125 6 -22 17 -57
24 -77 19 -48 5 -49 -30 -2 -15 19 -29 33 -32 31 -2 -3 10 -40 27 -84 17 -43
40 -105 51 -137 20 -59 75 -152 104 -176 8 -7 15 -18 15 -25 0 -8 20 -43 44
-79 24 -36 42 -66 39 -66 -3 0 -27 14 -53 31 -47 31 -100 106 -100 143 0 10
-4 14 -10 11 -6 -4 -10 5 -10 19 0 14 -5 26 -11 26 -5 0 -7 -5 -3 -12 4 -7 3
-8 -5 -4 -6 4 -8 12 -5 18 4 6 0 16 -8 22 -8 6 -16 16 -17 21 -2 6 -9 21 -16
34 l-12 25 -16 -30 c-9 -16 -16 -25 -17 -21 0 5 5 17 10 28 10 18 -3 29 -13
12 -4 -9 -2 2 7 37 5 19 2 17 -12 -9 l-19 -34 -21 21 c-16 16 -22 17 -26 7 -3
-8 0 -16 7 -19 7 -2 4 -5 -5 -5 -21 -1 -21 -1 -8 36 9 26 9 27 -5 9 -8 -11
-15 -25 -15 -30 0 -17 -40 62 -81 162 -79 187 -119 388 -126 634 -15 483 88
870 326 1224 251 374 621 646 1068 783 205 64 210 64 993 71 684 7 719 8 801
28 261 65 449 169 630 351 207 208 308 412 341 691 6 52 15 100 21 105 7 7 7
5 2 -5 -8 -13 -7 -13 8 -1 18 14 22 7 18 -26 -2 -15 15 -17 24 -3 9 15 25 2
19 -14 -3 -8 -1 -17 5 -21 7 -4 8 0 4 11 -4 12 -3 15 5 10 7 -4 12 -2 12 4 0
6 -7 13 -15 16 -8 4 -15 11 -15 16 0 6 6 6 14 -1 10 -8 16 -9 21 -1 3 5 0 10
-7 11 -7 0 -21 2 -30 4 -10 2 -15 -2 -12 -10 3 -7 1 -15 -4 -19 -5 -3 -7 5 -6
17 1 12 3 25 3 30 1 4 4 6 9 6 4 -1 9 -1 12 1 3 1 16 3 30 6 18 3 21 2 10 -5
-8 -5 -18 -7 -24 -4 -5 4 -6 1 -1 -6 4 -7 15 -11 25 -8 11 3 17 -1 16 -12 0
-9 5 -15 12 -13 8 1 11 -2 7 -8 -5 -8 -11 -8 -20 0 -8 7 -15 7 -19 1 -8 -12
29 -25 46 -16 7 4 4 -1 -6 -9 -16 -13 -22 -13 -29 -3 -6 9 -7 8 -4 -3 2 -8 10
-14 17 -12 8 2 10 -3 5 -15 -7 -17 -7 -24 -3 -56 1 -7 11 -14 22 -14 19 -2 19
-1 4 8 -10 6 -18 14 -18 19 0 5 8 7 18 4 16 -5 16 -5 0 6 -20 12 -24 30 -7 30
5 0 7 -4 4 -10 -3 -5 -1 -10 4 -10 6 0 11 17 12 38 0 20 2 48 4 62 2 14 1 19
-1 13 -3 -7 -10 -13 -15 -13 -5 0 -4 9 3 19 7 11 16 17 20 15 4 -3 8 0 8 5 0
21 20 11 34 -17z m-4684 8 c0 -5 -4 -10 -10 -10 -5 0 -10 5 -10 10 0 6 5 10
10 10 6 0 10 -4 10 -10z m-133 -24 c12 -13 20 -26 16 -30 -11 -11 -23 -6 -23
9 0 8 -9 15 -20 15 -20 0 -26 11 -13 23 10 11 17 8 40 -17z m53 9 c0 -8 -4
-15 -9 -15 -13 0 -22 16 -14 24 11 11 23 6 23 -9z m40 -20 c0 -8 -4 -15 -10
-15 -5 0 -10 7 -10 15 0 8 5 15 10 15 6 0 10 -7 10 -15z m80 -5 c0 -5 -2 -10
-4 -10 -3 0 -8 5 -11 10 -3 6 -1 10 4 10 6 0 11 -4 11 -10z m-205 -20 c11 -17
-5 -32 -21 -19 -8 6 -14 15 -14 20 0 12 27 11 35 -1z m5429 -138 l-17 -57 -8
35 c-5 24 -1 52 14 100 l22 66 3 -43 c2 -24 -5 -70 -14 -101z m-5347 112 c-9
-9 -28 6 -21 18 4 6 10 6 17 -1 6 -6 8 -13 4 -17z m-123 0 c8 -22 8 -24 -8
-24 -15 0 -28 24 -19 34 11 10 21 7 27 -10z m206 6 c0 -5 -4 -10 -10 -10 -5 0
-10 5 -10 10 0 6 5 10 10 10 6 0 10 -4 10 -10z m4940 -40 l20 -39 -21 -58
c-12 -32 -25 -62 -29 -67 -5 -4 -18 14 -30 40 -19 45 -20 52 -7 79 8 17 20 42
27 58 7 15 15 27 16 27 2 0 13 -18 24 -40z m146 -22 c-4 -35 -10 -81 -13 -103
l-6 -39 -18 51 c-17 51 -17 51 8 102 14 28 28 51 31 51 2 0 2 -28 -2 -62z
m-5208 34 c2 -7 -3 -12 -12 -12 -9 0 -16 7 -16 16 0 17 22 14 28 -4z m77 -2
c3 -5 -1 -10 -10 -10 -9 0 -13 5 -10 10 3 6 8 10 10 10 2 0 7 -4 10 -10z
m4814 -25 c9 -35 4 -68 -21 -129 l-12 -29 -23 49 c-13 26 -23 54 -23 62 0 18
47 82 60 82 5 0 13 -16 19 -35z m-5009 10 c0 -8 -7 -15 -15 -15 -8 0 -15 7
-15 15 0 8 7 15 15 15 8 0 15 -7 15 -15z m75 -4 c10 -17 -12 -21 -25 -6 -10
12 -10 15 3 15 9 0 18 -4 22 -9z m79 -22 c-3 -5 -10 -7 -15 -3 -5 3 -7 10 -3
15 3 5 10 7 15 3 5 -3 7 -10 3 -15z m-119 -9 c3 -5 -3 -10 -14 -10 -12 0 -21
5 -21 10 0 6 6 10 14 10 8 0 18 -4 21 -10z m75 -15 c0 -8 -4 -15 -9 -15 -13 0
-22 16 -14 24 11 11 23 6 23 -9z m-117 -9 c6 -16 -2 -28 -14 -20 -12 7 -11 34
0 34 5 0 11 -6 14 -14z m77 -16 c6 -11 7 -20 2 -20 -10 0 -32 21 -32 32 0 16
19 8 30 -12z m-112 -18 c3 -9 -2 -13 -14 -10 -9 1 -19 9 -22 16 -3 9 2 13 14
10 9 -1 19 -9 22 -16z m75 -13 c10 -11 16 -23 14 -26 -5 -5 -47 33 -47 42 0
12 17 4 33 -16z m-116 -4 c3 -9 3 -19 -1 -22 -7 -7 -36 16 -36 28 0 15 30 10
37 -6z m5163 -25 c11 -27 10 -38 -15 -97 l-28 -66 -24 53 c-12 29 -20 57 -16
64 56 94 62 98 83 46z m170 -22 c0 -28 -40 -138 -51 -138 -6 0 -29 69 -29 88
0 6 14 32 31 57 34 50 49 47 49 -7z m-5380 38 c0 -2 3 -11 6 -20 4 -10 1 -16
-9 -16 -17 0 -40 24 -30 33 7 8 33 10 33 3z m132 -16 c12 -11 18 -23 14 -27
-3 -4 -19 5 -34 20 -30 31 -12 37 20 7z m113 10 c3 -5 1 -10 -4 -10 -6 0 -11
5 -11 10 0 6 2 10 4 10 3 0 8 -4 11 -10z m5271 -86 c-9 -43 -18 -79 -20 -81
-12 -12 -14 69 -3 98 8 19 17 43 21 53 15 44 17 2 2 -70z m-5423 56 c19 -23
22 -40 7 -40 -5 0 -10 7 -10 15 0 8 -7 15 -15 15 -8 0 -15 7 -15 15 0 21 12
19 33 -5z m117 0 c0 -5 -2 -10 -4 -10 -3 0 -8 5 -11 10 -3 6 -1 10 4 10 6 0
11 -4 11 -10z m-175 -30 c-5 -8 -11 -8 -17 -2 -6 6 -7 16 -3 22 5 8 11 8 17 2
6 -6 7 -16 3 -22z m-39 -1 c10 -17 -13 -36 -27 -22 -12 12 -4 33 11 33 5 0 12
-5 16 -11z m184 -10 c0 -6 -4 -7 -10 -4 -5 3 -10 11 -10 16 0 6 5 7 10 4 6 -3
10 -11 10 -16z m-106 -20 c-8 -13 -24 -1 -24 18 0 13 3 13 15 3 8 -7 12 -16 9
-21z m181 21 c3 -5 1 -10 -4 -10 -6 0 -11 5 -11 10 0 6 2 10 4 10 3 0 8 -4 11
-10z m-105 -31 c0 -5 -4 -9 -10 -9 -5 0 -10 7 -10 16 0 8 5 12 10 9 6 -3 10
-10 10 -16z m-112 -7 c3 -9 -2 -13 -14 -10 -9 1 -19 9 -22 16 -3 9 2 13 14 10
9 -1 19 -9 22 -16z m177 8 c3 -5 1 -10 -4 -10 -6 0 -11 5 -11 10 0 6 2 10 4
10 3 0 8 -4 11 -10z m-302 -15 c7 -16 -8 -29 -23 -20 -15 9 -12 35 4 35 8 0
16 -7 19 -15z m191 -1 c9 -24 7 -28 -9 -14 -17 14 -20 30 -6 30 5 0 12 -7 15
-16z m5001 -28 c5 -26 -1 -48 -25 -97 l-33 -63 -18 61 -19 61 36 41 c20 22 40
38 45 35 5 -2 11 -20 14 -38z m-5109 23 c10 -17 -13 -36 -27 -22 -12 12 -4 33
11 33 5 0 12 -5 16 -11z m5272 -31 c9 -37 8 -48 -17 -102 l-28 -61 -23 46 -23
47 32 56 c18 31 36 56 41 56 4 0 12 -19 18 -42z m-5198 7 c0 -7 6 -15 13 -18
6 -2 10 -7 7 -10 -9 -10 -53 30 -46 42 9 14 26 5 26 -14z m-118 -27 c-16 -16
-37 4 -28 28 6 16 8 16 23 1 13 -13 15 -19 5 -29z m238 38 c0 -3 -4 -8 -10
-11 -5 -3 -10 -1 -10 4 0 6 5 11 10 11 6 0 10 -2 10 -4z m5206 -106 c-24 -65
-26 -66 -42 -12 -2 7 11 35 29 62 41 62 47 39 13 -50z m-5368 72 c2 -7 -3 -12
-12 -12 -9 0 -16 7 -16 16 0 17 22 14 28 -4z m122 -3 c0 -6 -4 -7 -10 -4 -5 3
-10 11 -10 16 0 6 5 7 10 4 6 -3 10 -11 10 -16z m-237 -4 c7 -16 -8 -29 -23
-20 -15 9 -12 35 4 35 8 0 16 -7 19 -15z m77 -21 c0 -16 -16 -19 -25 -4 -8 13
4 32 16 25 5 -4 9 -13 9 -21z m5613 -72 c-15 -31 -33 -57 -40 -59 -18 -6 -1
44 31 91 14 21 27 46 27 55 1 9 4 5 6 -8 3 -14 -7 -46 -24 -79z m-5546 62 c-9
-9 -28 6 -21 18 4 6 10 6 17 -1 6 -6 8 -13 4 -17z m63 5 c0 -5 -4 -9 -10 -9
-5 0 -10 7 -10 16 0 8 5 12 10 9 6 -3 10 -10 10 -16z m-170 -14 c9 -10 10 -19
4 -25 -13 -13 -49 13 -40 28 10 16 21 15 36 -3z m74 -27 c-3 -5 -12 -4 -20 3
-7 6 -11 15 -8 21 3 5 12 4 20 -3 7 -6 11 -15 8 -21z m66 12 c0 -5 -4 -10 -10
-10 -5 0 -10 5 -10 10 0 6 5 10 10 10 6 0 10 -4 10 -10z m-240 -25 c0 -8 7
-15 15 -15 8 0 15 -9 15 -20 0 -11 -5 -20 -11 -20 -6 0 -13 9 -16 20 -3 11
-12 20 -19 20 -8 0 -14 7 -14 15 0 8 7 15 15 15 8 0 15 -7 15 -15z m70 -19
c-13 -13 -35 7 -25 24 5 8 11 8 21 -1 10 -8 12 -15 4 -23z m70 8 c0 -16 -16
-19 -25 -4 -8 13 4 32 16 25 5 -4 9 -13 9 -21z m70 6 c0 -5 -7 -10 -15 -10 -8
0 -15 5 -15 10 0 6 7 10 15 10 8 0 15 -4 15 -10z m60 0 c0 -5 -4 -10 -10 -10
-5 0 -10 5 -10 10 0 6 5 10 10 10 6 0 10 -4 10 -10z m5035 -28 c5 -30 1 -47
-20 -84 -42 -75 -50 -76 -64 -12 l-13 56 38 39 c21 21 41 39 45 39 4 0 10 -17
14 -38z m-5200 -10 c0 -18 -20 -15 -23 4 -3 10 1 15 10 12 7 -3 13 -10 13 -16z
m70 -12 c-5 -8 -11 -8 -17 -2 -6 6 -7 16 -3 22 5 8 11 8 17 2 6 -6 7 -16 3
-22z m65 15 c0 -8 -4 -15 -10 -15 -5 0 -10 7 -10 15 0 8 5 15 10 15 6 0 10 -7
10 -15z m5188 -109 l-33 -69 -6 58 c-6 56 -6 59 30 96 l36 39 3 -27 c2 -16
-10 -55 -30 -97z m-5430 87 c2 -8 -5 -13 -17 -13 -12 0 -21 6 -21 16 0 18 31
15 38 -3z m72 -6 c0 -8 -3 -17 -7 -20 -9 -9 -34 13 -27 24 8 14 34 11 34 -4z
m70 -12 c0 -8 -4 -15 -10 -15 -5 0 -10 7 -10 15 0 8 5 15 10 15 6 0 10 -7 10
-15z m70 5 c0 -5 -4 -10 -9 -10 -6 0 -13 5 -16 10 -3 6 1 10 9 10 9 0 16 -4
16 -10z m-175 -20 c11 -17 -5 -32 -21 -19 -8 6 -14 15 -14 20 0 12 27 11 35
-1z m65 -24 c-14 -14 -24 0 -16 21 6 15 8 15 16 3 6 -9 5 -19 0 -24z m5492
-33 l-27 -68 -3 38 c-2 26 3 46 18 67 35 49 40 34 12 -37z m-5422 41 c0 -8 -4
-12 -10 -9 -5 3 -10 10 -10 16 0 5 5 9 10 9 6 0 10 -7 10 -16z m70 6 c0 -5 -4
-10 -10 -10 -5 0 -10 5 -10 10 0 6 5 10 10 10 6 0 10 -4 10 -10z m-242 -23 c4
-19 -6 -21 -27 -8 -16 10 -5 34 12 28 7 -2 13 -11 15 -20z m5181 -14 c-3 -45
-30 -95 -64 -117 -13 -9 -27 -16 -30 -16 -3 0 -5 25 -5 54 0 53 1 56 43 85 23
17 46 30 50 31 4 0 7 -17 6 -37z m-5109 1 c0 -16 -16 -19 -25 -4 -8 13 4 32
16 25 5 -4 9 -13 9 -21z m67 -10 c-9 -9 -28 6 -21 18 4 6 10 6 17 -1 6 -6 8
-13 4 -17z m68 17 c3 -5 1 -12 -5 -16 -5 -3 -10 1 -10 9 0 18 6 21 15 7z
m-172 -26 c8 -18 -11 -31 -25 -17 -11 11 -3 32 12 32 4 0 10 -7 13 -15z m5304
-22 c-6 -36 -74 -150 -84 -140 -3 3 -6 30 -8 59 -2 51 -1 54 39 85 23 17 45
32 50 32 5 1 6 -15 3 -36z m-5236 4 c-13 -13 -26 -3 -16 12 3 6 11 8 17 5 6
-4 6 -10 -1 -17z m69 3 c0 -5 -4 -10 -10 -10 -5 0 -10 5 -10 10 0 6 5 10 10
10 6 0 10 -4 10 -10z m-105 -40 c-5 -8 -11 -8 -17 -2 -6 6 -7 16 -3 22 5 8 11
8 17 2 6 -6 7 -16 3 -22z m75 5 c0 -8 -4 -15 -10 -15 -5 0 -10 7 -10 15 0 8 5
15 10 15 6 0 10 -7 10 -15z m5326 -42 c-31 -61 -53 -90 -61 -82 -9 10 18 70
50 107 37 44 42 34 11 -25z m-5509 32 c3 -9 3 -18 1 -21 -9 -9 -38 8 -38 22 0
19 29 18 37 -1z m76 -10 c8 -18 -11 -31 -25 -17 -11 11 -3 32 12 32 4 0 10 -7
13 -15z m69 -10 c0 -5 -5 -11 -11 -13 -6 -2 -11 4 -11 13 0 9 5 15 11 13 6 -2
11 -8 11 -13z m5593 -31 c-17 -42 -49 -80 -79 -96 -23 -12 -17 -1 29 57 18 22
38 51 44 63 20 37 24 18 6 -24z m-5505 15 c0 -5 -4 -9 -10 -9 -5 0 -10 7 -10
16 0 8 5 12 10 9 6 -3 10 -10 10 -16z m-192 -12 c2 -10 -3 -17 -12 -17 -18 0
-29 16 -21 31 9 14 29 6 33 -14z m5192 -19 c-9 -60 -25 -85 -69 -107 l-38 -20
2 51 c2 47 5 53 46 84 59 45 67 44 59 -8z m-5125 14 c0 -18 -20 -15 -23 4 -3
10 1 15 10 12 7 -3 13 -10 13 -16z m80 -1 c3 -5 1 -12 -5 -16 -5 -3 -10 1 -10
9 0 18 6 21 15 7z m-188 -16 c3 -9 3 -19 -1 -22 -8 -9 -37 18 -30 28 8 14 24
11 31 -6z m81 -24 c3 -8 -1 -12 -9 -9 -7 2 -15 10 -17 17 -3 8 1 12 9 9 7 -2
15 -10 17 -17z m72 9 c0 -5 -2 -10 -4 -10 -3 0 -8 5 -11 10 -3 6 -1 10 4 10 6
0 11 -4 11 -10z m5237 -47 c-8 -15 -33 -48 -56 -73 l-41 -45 2 50 c3 48 5 51
53 82 53 35 65 31 42 -14z m-5257 27 c0 -5 -2 -10 -4 -10 -3 0 -8 5 -11 10 -3
6 -1 10 4 10 6 0 11 -4 11 -10z m-100 -15 c0 -8 -4 -15 -9 -15 -5 0 -11 7 -15
15 -3 9 0 15 9 15 8 0 15 -7 15 -15z m5060 5 c0 -46 -84 -138 -115 -126 -40
15 0 84 70 120 35 19 45 20 45 6z m-4985 -9 c3 -5 1 -12 -5 -16 -5 -3 -10 1
-10 9 0 18 6 21 15 7z m-157 -39 c2 -7 -6 -12 -17 -12 -21 0 -27 11 -14 24 9
9 26 2 31 -12z m122 3 c0 -8 -4 -15 -10 -15 -5 0 -10 7 -10 15 0 8 5 15 10 15
6 0 10 -7 10 -15z m80 -1 c0 -8 -5 -12 -10 -9 -6 4 -8 11 -5 16 9 14 15 11 15
-7z m-120 -19 c0 -8 -4 -15 -10 -15 -5 0 -10 7 -10 15 0 8 5 15 10 15 6 0 10
-7 10 -15z m5485 -35 c-29 -30 -52 -45 -54 -38 -4 13 74 88 92 88 6 0 -11 -23
-38 -50z m-5403 25 c0 -5 -5 -11 -11 -13 -6 -2 -11 4 -11 13 0 9 5 15 11 13 6
-2 11 -8 11 -13z m5138 7 c0 -30 -95 -142 -120 -142 -14 0 -19 41 -8 70 7 21
24 36 61 54 58 27 67 30 67 18z m-5265 -12 c11 -17 -5 -32 -21 -19 -8 6 -14
15 -14 20 0 12 27 11 35 -1z m205 0 c0 -5 -4 -10 -10 -10 -5 0 -10 5 -10 10 0
6 5 10 10 10 6 0 10 -4 10 -10z m70 -10 c0 -5 -2 -10 -4 -10 -3 0 -8 5 -11 10
-3 6 -1 10 4 10 6 0 11 -4 11 -10z m-317 -15 c7 -16 -8 -29 -23 -20 -15 9 -12
35 4 35 8 0 16 -7 19 -15z m135 -4 c3 -8 -1 -12 -9 -9 -7 2 -15 10 -17 17 -3
8 1 12 9 9 7 -2 15 -10 17 -17z m-45 -15 c3 -8 3 -17 0 -20 -9 -9 -34 15 -27
25 8 13 21 11 27 -5z m-125 -14 c3 -9 -2 -13 -14 -10 -9 1 -19 9 -22 16 -3 9
2 13 14 10 9 -1 19 -9 22 -16z m5182 13 c0 -19 -57 -90 -92 -115 -51 -37 -67
-28 -47 27 11 30 25 44 68 66 54 27 71 32 71 22z m-4975 -14 c3 -5 1 -12 -5
-16 -5 -3 -10 1 -10 9 0 18 6 21 15 7z m-137 -18 c-5 -25 -28 -28 -28 -4 0 12
6 21 16 21 9 0 14 -7 12 -17z m5422 13 c0 -7 -111 -118 -114 -115 -2 2 1 18 6
36 6 22 21 40 51 57 40 25 57 31 57 22z m-5320 -26 c0 -5 -4 -10 -9 -10 -6 0
-13 5 -16 10 -3 6 1 10 9 10 9 0 16 -4 16 -10z m-150 -15 c0 -8 -7 -15 -15
-15 -8 0 -15 7 -15 15 0 8 7 15 15 15 8 0 15 -7 15 -15z m215 5 c3 -5 1 -10
-4 -10 -6 0 -11 5 -11 10 0 6 2 10 4 10 3 0 8 -4 11 -10z m-155 -19 c0 -6 -4
-13 -10 -16 -5 -3 -10 1 -10 9 0 9 5 16 10 16 6 0 10 -4 10 -9z m55 0 c3 -5 1
-12 -5 -16 -5 -3 -10 1 -10 9 0 18 6 21 15 7z m-152 -32 c-17 -17 -37 -1 -22
17 8 10 15 12 23 4 7 -7 7 -13 -1 -21z m222 21 c3 -5 1 -10 -4 -10 -6 0 -11 5
-11 10 0 6 2 10 4 10 3 0 8 -4 11 -10z m5519 -5 c-11 -27 -160 -108 -152 -82
2 6 33 27 68 44 35 18 68 37 74 43 14 14 16 13 10 -5z m-394 -4 c0 -21 -82
-112 -96 -107 -8 3 -14 1 -14 -4 0 -6 -4 -10 -9 -10 -13 0 -2 71 13 87 10 11
79 40 99 42 4 1 7 -3 7 -8z m-5289 -14 c-1 -12 -15 -9 -19 4 -3 6 1 10 8 8 6
-3 11 -8 11 -12z m59 -2 c0 -8 -4 -15 -10 -15 -5 0 -10 7 -10 15 0 8 5 15 10
15 6 0 10 -7 10 -15z m-160 -9 c0 -16 -18 -31 -27 -22 -8 8 5 36 17 36 5 0 10
-6 10 -14z m230 4 c0 -5 -4 -10 -10 -10 -5 0 -10 5 -10 10 0 6 5 10 10 10 6 0
10 -4 10 -10z m-160 -26 c0 -9 -5 -14 -12 -12 -18 6 -21 28 -4 28 9 0 16 -7
16 -16z m-110 -4 c0 -12 -40 -33 -48 -25 -4 4 2 13 12 21 23 16 36 18 36 4z
m170 -6 c0 -8 -4 -12 -10 -9 -5 3 -10 10 -10 16 0 5 5 9 10 9 6 0 10 -7 10
-16z m-100 -3 c0 -14 -18 -23 -30 -16 -6 4 -8 11 -5 16 8 12 35 12 35 0z m161
-4 c-1 -12 -15 -9 -19 4 -3 6 1 10 8 8 6 -3 11 -8 11 -12z m74 3 c3 -5 2 -10
-4 -10 -5 0 -13 5 -16 10 -3 6 -2 10 4 10 5 0 13 -4 16 -10z m4948 -21 c-21
-37 -88 -89 -115 -89 -10 0 -18 3 -18 8 0 9 20 82 23 82 1 0 20 7 42 15 22 8
50 14 63 15 23 0 23 0 5 -31z m-153 7 c0 -28 -64 -94 -90 -94 -14 0 -36 -3
-49 -7 -21 -7 -23 -6 -16 16 17 57 31 74 70 85 55 17 85 17 85 0z m-4963 -22
c-9 -9 -28 6 -21 18 4 6 10 6 17 -1 6 -6 8 -13 4 -17z m-107 2 c0 -8 7 -16 15
-20 17 -6 21 -36 4 -36 -6 0 -13 9 -16 19 -3 11 -13 21 -24 24 -25 7 -24 27 1
27 11 0 20 -6 20 -14z m174 -7 c-3 -5 -10 -7 -15 -3 -5 3 -7 10 -3 15 3 5 10
7 15 3 5 -3 7 -10 3 -15z m-106 -1 c15 -15 15 -28 1 -28 -11 0 -39 24 -39 34
0 11 26 6 38 -6z m172 2 c0 -5 -2 -10 -4 -10 -3 0 -8 5 -11 10 -3 6 -1 10 4
10 6 0 11 -4 11 -10z m-260 -52 c0 -15 -27 -8 -44 11 -27 30 -9 46 20 19 13
-13 24 -26 24 -30z m5556 39 c-10 -7 -37 -26 -59 -44 -23 -18 -43 -30 -45 -28
-10 10 28 50 63 66 45 21 70 24 41 6z m-5396 -7 c0 -5 -4 -10 -10 -10 -5 0
-10 5 -10 10 0 6 5 10 10 10 6 0 10 -4 10 -10z m60 -26 c0 -8 -5 -12 -10 -9
-6 4 -8 11 -5 16 9 14 15 11 15 -7z m-266 -19 c3 -8 12 -15 21 -15 8 0 15 -2
15 -4 0 -2 3 -11 6 -20 4 -12 0 -16 -15 -16 -14 0 -21 6 -21 19 0 14 -5 18
-20 14 -15 -4 -20 0 -20 16 0 24 25 29 34 6z m5426 -5 c-8 -4 -35 -24 -60 -44
-24 -19 -46 -33 -48 -31 -3 2 -2 15 2 28 4 18 19 29 58 44 51 19 79 21 48 3z
m-5340 1 c0 -14 -18 -23 -30 -16 -6 4 -8 11 -5 16 8 12 35 12 35 0z m64 0 c3
-5 -1 -14 -8 -20 -16 -13 -32 2 -21 19 8 12 22 13 29 1z m76 -6 c0 -8 -4 -15
-9 -15 -13 0 -22 16 -14 24 11 11 23 6 23 -9z m65 -25 c3 -5 2 -10 -4 -10 -5
0 -13 5 -16 10 -3 6 -2 10 4 10 5 0 13 -4 16 -10z m-177 -12 c-3 -7 -11 -13
-18 -13 -7 0 -15 6 -17 13 -3 7 4 12 17 12 13 0 20 -5 18 -12z m73 -1 c-1 -12
-15 -9 -19 4 -3 6 1 10 8 8 6 -3 11 -8 11 -12z m4749 6 c-1 -5 -15 -24 -33
-45 -24 -27 -44 -39 -82 -46 -55 -12 -65 -9 -65 17 0 23 40 60 76 71 37 11
104 12 104 3z m306 -28 c-37 -33 -99 -55 -113 -41 -4 3 3 19 14 34 20 27 52
39 108 40 l30 1 -39 -34z m-5246 10 c10 -12 9 -16 -5 -21 -19 -8 -40 9 -31 25
10 15 21 14 36 -4z m266 -12 c-7 -7 -26 7 -26 19 0 6 6 6 15 -2 9 -7 13 -15
11 -17z m4827 -4 c-32 -36 -79 -59 -123 -59 -40 0 -40 30 1 64 25 22 41 26 90
26 l59 0 -27 -31z m-5017 10 c10 -17 -13 -36 -27 -22 -12 12 -4 33 11 33 5 0
12 -5 16 -11z m79 -30 c-6 -9 -35 -1 -35 10 0 4 3 11 7 14 8 9 34 -13 28 -24z
m65 6 c10 -12 10 -15 -4 -15 -9 0 -16 7 -16 15 0 8 2 15 4 15 2 0 9 -7 16 -15z
m5485 5 c-14 -23 -200 -99 -212 -86 -8 8 28 26 102 50 44 15 87 31 95 36 19
12 23 12 15 0z m-5658 -26 c12 -15 20 -31 17 -35 -7 -12 -24 -1 -24 15 0 8 -9
16 -20 19 -11 3 -20 10 -20 16 0 19 24 12 47 -15z m63 -10 c0 -16 -16 -19 -25
-4 -8 13 4 32 16 25 5 -4 9 -13 9 -21z m-114 5 c10 -17 -13 -36 -27 -22 -12
12 -4 33 11 33 5 0 12 -5 16 -11z m194 -9 c0 -5 -4 -10 -9 -10 -6 0 -13 5 -16
10 -3 6 1 10 9 10 9 0 16 -4 16 -10z m85 -20 c3 -5 -1 -10 -10 -10 -9 0 -13 5
-10 10 3 6 8 10 10 10 2 0 7 -4 10 -10z m-250 -30 c-5 -8 -11 -8 -17 -2 -6 6
-7 16 -3 22 5 8 11 8 17 2 6 -6 7 -16 3 -22z m135 10 c12 -23 3 -25 -22 -6
-22 16 -23 26 -3 26 8 0 19 -9 25 -20z m-62 -9 c3 -8 -1 -12 -9 -9 -7 2 -15
10 -17 17 -3 8 1 12 9 9 7 -2 15 -10 17 -17z m4596 11 c3 -5 -15 -26 -40 -47
-44 -36 -48 -37 -102 -31 -31 4 -58 9 -61 12 -4 3 12 21 33 40 36 31 45 34
102 34 35 0 65 -4 68 -8z m-4704 -42 c-19 -12 -35 3 -26 26 6 17 8 17 24 0 15
-15 15 -18 2 -26z m255 20 c3 -5 2 -10 -4 -10 -5 0 -13 5 -16 10 -3 6 -2 10 4
10 5 0 13 -4 16 -10z m65 0 c0 -5 -2 -10 -4 -10 -3 0 -8 5 -11 10 -3 6 -1 10
4 10 6 0 11 -4 11 -10z m4554 1 c17 -7 16 -10 -15 -32 -55 -39 -101 -56 -141
-51 -21 2 -38 8 -38 12 0 4 18 24 40 44 35 31 47 36 88 35 26 0 56 -4 66 -8z
m482 -17 c-62 -21 -90 -25 -73 -8 12 12 83 33 112 33 23 0 14 -6 -39 -25z
m-5286 0 c0 -9 -5 -14 -12 -12 -18 6 -21 28 -4 28 9 0 16 -7 16 -16z m4980 -5
c-6 -9 -35 -29 -66 -43 -62 -28 -68 -30 -60 -17 3 4 -9 7 -26 5 l-32 -4 39 40
c37 38 42 40 97 39 52 -1 56 -3 48 -20z m170 11 c0 -5 -15 -13 -32 -18 -18 -6
-50 -17 -70 -26 -41 -18 -46 -13 -23 21 11 16 28 23 63 26 26 2 50 4 55 5 4 1
7 -2 7 -8z m-5080 -16 c0 -8 -4 -12 -10 -9 -5 3 -10 10 -10 16 0 5 5 9 10 9 6
0 10 -7 10 -16z m80 -4 c0 -5 -4 -10 -9 -10 -6 0 -13 5 -16 10 -3 6 1 10 9 10
9 0 16 -4 16 -10z m-183 -15 c3 -9 3 -19 -1 -22 -8 -9 -37 18 -30 28 8 14 24
11 31 -6z m66 -9 c6 -16 -2 -28 -14 -20 -12 7 -11 34 0 34 5 0 11 -6 14 -14z
m3076 3 c17 -6 31 -14 31 -17 0 -4 -29 -20 -64 -35 l-64 -29 -57 18 c-52 17
-55 19 -38 32 52 40 129 53 192 31z m-2999 -20 c0 -5 -7 -9 -15 -9 -15 0 -20
12 -9 23 8 8 24 -1 24 -14z m-185 -7 c0 -18 -20 -15 -23 4 -3 10 1 15 10 12 7
-3 13 -10 13 -16z m265 8 c0 -5 -4 -10 -10 -10 -5 0 -10 5 -10 10 0 6 5 10 10
10 6 0 10 -4 10 -10z m75 0 c3 -5 1 -10 -4 -10 -6 0 -11 5 -11 10 0 6 2 10 4
10 3 0 8 -4 11 -10z m4087 -8 c7 -7 -5 -19 -37 -38 -48 -28 -98 -33 -145 -16
-22 8 -22 9 11 41 32 32 35 33 97 28 35 -3 68 -9 74 -15z m-4347 -23 c-6 -9
-35 -1 -35 10 0 4 3 11 7 14 8 9 34 -13 28 -24z m65 -4 c0 -8 -4 -15 -9 -15
-13 0 -22 16 -14 24 11 11 23 6 23 -9z m4448 -10 c11 -10 4 -17 -39 -40 -45
-23 -61 -26 -102 -21 -28 3 -52 8 -55 10 -9 10 23 39 63 57 43 20 109 17 133
-6z m-4558 -19 c-13 -13 -35 7 -25 24 5 8 11 8 21 -1 10 -8 12 -15 4 -23z
m185 24 c3 -5 2 -10 -4 -10 -5 0 -13 5 -16 10 -3 6 -2 10 4 10 5 0 13 -4 16
-10z m3125 -12 l45 -21 -78 -24 c-77 -24 -79 -24 -133 -7 -30 9 -52 19 -49 23
15 15 113 50 140 50 17 0 50 -9 75 -21z m372 0 l50 -21 -64 -23 c-73 -27 -93
-29 -139 -10 -19 7 -43 16 -53 20 -19 6 -18 7 3 22 54 39 131 43 203 12z m359
5 c27 -10 49 -20 49 -23 0 -11 -55 -38 -90 -45 -25 -4 -53 0 -94 15 -63 24
-63 35 -3 57 46 17 82 15 138 -4z m-3971 -29 c0 -16 -16 -19 -25 -4 -8 13 4
32 16 25 5 -4 9 -13 9 -21z m2754 11 c-1 -5 -21 -22 -46 -36 -34 -20 -62 -28
-116 -31 -81 -4 -81 4 -2 54 39 25 53 28 105 26 33 -2 60 -7 59 -13z m-2866
-12 c-4 -22 -22 -20 -26 1 -2 10 3 16 13 16 10 0 15 -7 13 -17z m4778 4 c14
-13 -19 -36 -59 -42 -23 -3 -61 -11 -85 -17 -48 -12 -61 -6 -41 18 32 39 72
55 126 51 29 -2 56 -7 59 -10z m-4586 -7 c0 -5 -7 -10 -15 -10 -8 0 -15 5 -15
10 0 6 7 10 15 10 8 0 15 -4 15 -10z m2815 -6 c22 -4 44 -9 49 -12 5 -2 -22
-20 -60 -38 -53 -27 -80 -34 -126 -34 -32 0 -58 4 -58 8 0 28 108 94 140 87 8
-2 33 -7 55 -11z m-2935 -20 c0 -22 -2 -25 -15 -14 -12 10 -13 16 -4 26 16 20
19 18 19 -12z m5370 9 c-43 -19 -129 -33 -199 -33 -90 0 -46 17 73 29 60 6
112 13 114 16 3 3 15 5 26 4 16 0 13 -4 -14 -16z m-1157 -20 l31 -15 -27 -14
c-38 -20 -108 -23 -151 -6 l-37 15 38 23 c42 27 90 26 146 -3z m657 20 c0 -8
-72 -34 -111 -39 -39 -5 -49 -4 -49 8 0 23 40 36 102 35 32 -1 58 -3 58 -4z
m-4790 -24 c0 -5 -4 -9 -10 -9 -5 0 -10 7 -10 16 0 8 5 12 10 9 6 -3 10 -10
10 -16z m3374 -12 l49 -21 -39 -13 c-21 -7 -44 -11 -51 -9 -7 3 -26 1 -41 -5
-21 -8 -40 -6 -84 7 -32 9 -58 21 -58 25 0 4 21 14 48 23 90 28 93 28 176 -7z
m1586 23 c-8 -5 -25 -10 -36 -10 -12 0 -41 -7 -64 -15 -40 -14 -42 -14 -29 3
23 29 32 32 89 32 39 0 51 -3 40 -10z m-5077 -14 c3 -8 3 -17 0 -20 -9 -9 -34
15 -27 25 8 13 21 11 27 -5z m3874 -3 c29 -9 53 -20 53 -23 0 -4 -18 -15 -40
-25 -33 -15 -46 -16 -84 -6 -24 6 -51 8 -59 5 -8 -3 -35 1 -59 9 l-43 15 45
21 c55 25 116 26 187 4z m-3697 -3 c0 -5 -4 -10 -10 -10 -5 0 -10 5 -10 10 0
6 5 10 10 10 6 0 10 -4 10 -10z m2953 -7 c26 -9 47 -19 47 -22 -1 -4 -16 -13
-36 -22 -26 -13 -44 -15 -72 -8 -56 13 -98 11 -112 -6 -7 -8 -16 -15 -21 -15
-20 0 47 57 84 72 53 21 53 21 110 1z m-3058 -23 c-5 -8 -11 -8 -17 -2 -6 6
-7 16 -3 22 5 8 11 8 17 2 6 -6 7 -16 3 -22z m-112 -5 c-3 -8 -9 -15 -14 -15
-10 0 -12 24 -3 33 11 11 24 -3 17 -18z m2564 19 c20 -6 19 -9 -23 -45 -41
-35 -169 -88 -182 -74 -9 9 52 88 83 107 30 18 80 23 122 12z m1873 -10 c47
-19 51 -31 13 -39 -16 -3 -43 -10 -60 -14 -25 -7 -33 -6 -33 4 0 8 -12 11 -40
9 -22 -2 -40 -1 -40 1 0 7 93 54 107 55 7 0 31 -7 53 -16z m-4360 -30 c0 -14
-12 -19 -23 -8 -9 9 4 35 14 28 5 -3 9 -12 9 -20z m-43 -19 c1 -19 -3 -32 -8
-29 -11 7 -12 64 -1 64 4 0 8 -16 9 -35z m2306 -19 c-30 -42 -54 -61 -115 -94
-43 -22 -78 -36 -78 -30 0 21 32 76 58 101 21 20 138 73 170 77 2 0 -14 -24
-35 -54z m423 46 c-3 -5 -24 -22 -47 -38 -33 -23 -57 -30 -111 -34 -37 -3 -68
-3 -68 0 0 9 63 67 80 73 25 9 152 8 146 -1z m1369 -21 c16 -9 32 -26 34 -36
3 -15 0 -17 -10 -8 -17 13 -84 24 -161 26 -66 2 -63 20 5 36 50 11 91 5 132
-18z m-3977 1 c6 -18 -15 -14 -22 4 -4 10 -1 14 6 12 6 -2 14 -10 16 -16z
m3509 3 c28 -8 56 -22 63 -30 23 -28 -32 -36 -140 -21 -14 2 -42 4 -63 5 -47
1 -41 16 17 41 51 23 61 24 123 5z m-3447 -5 c0 -5 -4 -10 -10 -10 -5 0 -10 5
-10 10 0 6 5 10 10 10 6 0 10 -4 10 -10z m4410 -16 c15 -15 9 -16 -75 -16 -16
0 -36 -5 -43 -11 -15 -12 -27 -3 -17 13 22 36 103 44 135 14z m-1269 -3 l24
-19 -25 -6 c-14 -4 -38 -6 -55 -5 -16 1 -57 -2 -89 -6 -45 -6 -57 -5 -51 4 30
49 151 69 196 32z m-3246 -21 c-6 -9 -9 -9 -16 1 -10 17 0 34 13 21 6 -6 7
-16 3 -22z m2795 17 c0 -22 -38 -47 -82 -53 -62 -9 -110 -24 -132 -43 -18 -15
-18 -15 -8 4 16 31 64 72 102 89 44 19 120 21 120 3z m-2909 -40 c-15 -15 -24
-2 -16 24 7 20 8 21 17 5 7 -12 7 -21 -1 -29z m3102 4 c10 -11 8 -12 -11 -6
-26 7 -128 -11 -157 -29 -11 -7 -28 -15 -38 -19 -37 -14 4 34 46 54 47 22 139
22 160 0z m1194 -2 c24 -9 42 -32 22 -28 -8 2 -25 -2 -39 -9 -22 -12 -23 -11
-7 1 16 14 16 15 -5 21 -13 3 -25 1 -27 -5 -2 -7 -7 -6 -12 2 -6 9 -12 10 -16
4 -8 -11 -63 -20 -63 -10 0 3 15 14 33 25 32 20 59 20 114 -1z m523 11 c-8 -5
-32 -10 -53 -10 -21 0 -47 -5 -59 -11 -25 -13 -35 -5 -18 16 9 11 31 15 79 15
46 0 62 -3 51 -10z m-4742 -11 c-2 -6 -8 -10 -13 -10 -5 0 -11 4 -13 10 -2 6
4 11 13 11 9 0 15 -5 13 -11z m3789 -6 c-9 -8 -77 -11 -77 -3 0 5 8 10 18 12
20 4 65 -2 59 -9z m-3707 -3 c0 -5 -4 -10 -10 -10 -5 0 -10 5 -10 10 0 6 5 10
10 10 6 0 10 -4 10 -10z m3827 -35 l38 -34 -30 5 c-16 3 -34 9 -40 14 -7 6
-16 5 -24 -3 -10 -9 -11 -9 -6 4 3 9 -1 23 -9 32 -8 8 -13 17 -10 20 10 10 44
-6 81 -38z m1078 34 c84 0 103 -3 80 -10 -35 -11 -213 -13 -239 -3 -24 9 1 26
29 19 11 -2 70 -5 130 -6z m-1534 -25 c14 -7 32 -20 40 -30 11 -14 7 -13 -28
4 -28 14 -64 22 -112 24 -39 2 -71 4 -71 6 0 1 10 7 23 12 27 11 113 2 148
-16z m-3497 1 c-4 -8 -10 -12 -15 -9 -14 8 -10 24 6 24 9 0 12 -6 9 -15z m86
-6 c0 -5 -4 -9 -10 -9 -5 0 -10 7 -10 16 0 8 5 12 10 9 6 -3 10 -10 10 -16z
m2020 8 c0 -36 -157 -174 -176 -154 -11 11 17 74 45 101 21 20 99 60 129 66 1
0 2 -6 2 -13z m330 4 c0 -17 -116 -127 -148 -140 -38 -16 -47 -11 -38 23 11
46 62 92 118 109 65 19 68 19 68 8z m1239 6 c-2 -2 -20 -11 -39 -20 l-35 -17
24 20 c13 11 30 20 39 20 8 0 13 -2 11 -3z m-1081 -27 c2 -11 -12 -20 -45 -29
-26 -8 -62 -22 -79 -32 -17 -11 -39 -19 -48 -19 -21 0 -10 23 33 69 28 29 34
32 83 29 38 -2 54 -7 56 -18z m-2428 0 c0 -5 -4 -10 -10 -10 -5 0 -10 5 -10
10 0 6 5 10 10 10 6 0 10 -4 10 -10z m-124 -29 c-4 -6 -14 -11 -22 -11 -12 0
-13 4 -3 21 7 14 14 18 21 11 6 -6 7 -15 4 -21z m84 3 c0 -8 -5 -12 -10 -9 -6
4 -8 11 -5 16 9 14 15 11 15 -7z m4320 -5 c10 -6 -1 -9 -35 -8 -27 0 -65 -2
-82 -6 -18 -4 -33 -4 -33 -1 0 4 15 13 33 21 32 15 87 12 117 -6z m-2235 -58
c-43 -57 -120 -121 -144 -121 -35 0 16 102 67 133 39 24 115 57 120 52 2 -2
-18 -30 -43 -64z m1484 46 c13 -7 31 -23 40 -36 15 -24 15 -24 -7 -12 -12 6
-22 10 -22 7 0 -3 -11 1 -25 8 -15 8 -54 13 -94 12 -72 -2 -80 7 -28 29 34 14
98 10 136 -8z m-514 3 c-11 -5 -29 -9 -41 -9 -11 -1 -42 -12 -68 -25 -40 -20
-47 -21 -44 -7 5 25 67 51 123 50 37 0 45 -3 30 -9z m-3195 -15 c0 -8 -4 -15
-10 -15 -5 0 -10 7 -10 15 0 8 5 15 10 15 6 0 10 -7 10 -15z m100 -7 c0 -16
-3 -19 -11 -11 -6 6 -8 16 -5 22 11 17 16 13 16 -11z m4010 1 c51 -24 41 -36
-17 -20 -21 6 -54 11 -73 11 -33 1 -34 1 -16 15 27 20 53 19 106 -6z m-1361 2
c11 -7 5 -11 -22 -16 -20 -4 -37 -11 -37 -16 0 -5 -11 -9 -25 -9 -15 0 -39 -7
-55 -15 -26 -13 -29 -13 -24 -1 7 19 100 66 128 66 12 0 27 -4 35 -9z m621 -9
c18 -11 36 -24 38 -30 4 -13 -30 -17 -42 -5 -10 10 -36 15 -93 15 -53 1 -60
12 -19 28 35 14 79 11 116 -8z m-3190 4 c0 -3 -4 -8 -10 -11 -5 -3 -10 -1 -10
4 0 6 5 11 10 11 6 0 10 -2 10 -4z m2740 -5 c20 -7 14 -9 -35 -16 -33 -4 -68
-12 -79 -17 -14 -8 -17 -7 -14 4 11 31 73 45 128 29z m-2863 -23 c-3 -8 -6 -5
-6 6 -1 11 2 17 5 13 3 -3 4 -12 1 -19z m4578 11 c22 -7 83 -17 135 -24 l95
-12 -95 -1 c-88 -1 -217 22 -236 41 -11 11 57 8 101 -4z m-4495 -20 c0 -5 -4
-9 -10 -9 -5 0 -10 7 -10 16 0 8 5 12 10 9 6 -3 10 -10 10 -16z m-110 -5 c0
-14 -3 -14 -15 -4 -8 7 -15 14 -15 16 0 2 7 4 15 4 8 0 15 -7 15 -16z m73 -15
c4 -16 3 -18 -9 -8 -16 13 -19 29 -5 29 5 0 11 -9 14 -21z m2417 1 c0 -5 -7
-10 -15 -10 -8 0 -15 -4 -15 -9 0 -8 -10 -13 -65 -30 -11 -4 -20 -13 -20 -21
0 -7 -6 -15 -12 -17 -18 -6 -16 18 3 46 26 37 124 70 124 41z m-2530 -10 c0
-5 -4 -10 -10 -10 -5 0 -10 5 -10 10 0 6 5 10 10 10 6 0 10 -4 10 -10z m75
-18 c-8 -8 -25 10 -19 20 4 6 9 5 15 -3 4 -7 6 -15 4 -17z m125 18 c0 -5 -4
-10 -10 -10 -5 0 -10 5 -10 10 0 6 5 10 10 10 6 0 10 -4 10 -10z m1845 -53
c-25 -44 -102 -117 -124 -117 -15 0 -14 34 4 76 11 27 27 41 77 64 34 16 63
28 65 26 2 -2 -8 -23 -22 -49z m305 9 c-16 -25 -39 -47 -49 -51 -11 -3 -26
-17 -35 -30 -16 -25 -46 -34 -46 -15 0 5 7 27 16 49 13 34 24 43 77 65 34 14
63 25 65 26 2 0 -11 -20 -28 -44z m1947 19 c43 -13 114 -33 158 -44 l80 -20
-56 0 c-61 -1 -254 51 -279 75 -22 21 5 18 97 -11z m-4259 -14 c3 -8 -1 -12
-9 -9 -7 2 -15 10 -17 17 -3 8 1 12 9 9 7 -2 15 -10 17 -17z m122 9 c0 -5 -4
-10 -10 -10 -5 0 -10 5 -10 10 0 6 5 10 10 10 6 0 10 -4 10 -10z m3821 -31
c100 -41 193 -88 187 -95 -2 -2 -67 21 -143 51 -77 29 -157 56 -177 60 -21 4
-35 11 -32 16 11 19 69 8 165 -32z m-3871 21 c0 -5 -4 -10 -10 -10 -5 0 -10 5
-10 10 0 6 5 10 10 10 6 0 10 -4 10 -10z m3047 -20 c57 -25 52 -34 -7 -14 -46
16 -167 16 -205 0 -19 -8 -19 -8 -4 9 37 39 135 41 216 5z m450 0 c58 -20 169
-87 160 -96 -3 -3 -32 8 -64 25 -89 44 -176 71 -233 71 -32 0 -49 4 -45 10 11
17 122 11 182 -10z m-3537 -10 c0 -5 -4 -10 -10 -10 -5 0 -10 5 -10 10 0 6 5
10 10 10 6 0 10 -4 10 -10z m2735 0 c3 -5 -3 -10 -15 -10 -11 0 -37 -7 -56
-15 -26 -11 -34 -11 -32 -2 3 6 20 17 39 24 43 15 56 16 64 3z m-2605 -10 c0
-5 -2 -10 -4 -10 -3 0 -8 5 -11 10 -3 6 -1 10 4 10 6 0 11 -4 11 -10z m1989
-31 c-11 -23 -44 -65 -72 -93 l-52 -51 -3 34 c-6 57 13 84 81 118 34 18 63 32
65 32 1 1 -7 -18 -19 -40z m-2162 5 c-9 -9 -28 6 -21 18 4 6 10 6 17 -1 6 -6
8 -13 4 -17z m2579 7 c-10 -11 -32 -24 -49 -30 l-32 -11 33 30 c38 35 78 44
48 11z m-2511 -1 c3 -5 1 -10 -4 -10 -6 0 -11 5 -11 10 0 6 2 10 4 10 3 0 8
-4 11 -10z m1765 -58 c-17 -33 -50 -77 -72 -98 l-41 -39 6 59 c4 35 13 66 24
78 18 20 105 69 111 63 2 -2 -10 -30 -28 -63z m-1795 28 c3 -5 1 -10 -4 -10
-6 0 -11 5 -11 10 0 6 2 10 4 10 3 0 8 -4 11 -10z m2395 2 c0 -4 -22 -25 -50
-45 -57 -43 -67 -32 -16 19 31 31 66 45 66 26z m943 -28 c26 -9 46 -18 44 -20
-2 -2 -30 1 -63 7 -32 6 -98 9 -146 7 -48 -2 -85 -2 -82 1 32 33 160 36 247 5z
m-3373 -4 c0 -5 -4 -10 -10 -10 -5 0 -10 5 -10 10 0 6 5 10 10 10 6 0 10 -4
10 -10z m70 -10 c0 -5 -2 -10 -4 -10 -3 0 -8 5 -11 10 -3 6 -1 10 4 10 6 0 11
-4 11 -10z m1930 1 c0 -21 -53 -109 -88 -146 l-37 -40 -3 49 c-5 74 3 90 55
119 50 28 73 33 73 18z m251 -28 c-10 -21 -31 -49 -45 -62 l-26 -24 0 23 c0
20 69 100 86 100 2 0 -4 -17 -15 -37z m599 -3 c-78 -23 -73 -22 -65 -9 11 17
47 28 90 28 38 0 37 -1 -25 -19z m-2810 0 c0 -5 -2 -10 -4 -10 -3 0 -8 5 -11
10 -3 6 -1 10 4 10 6 0 11 -4 11 -10z m-46 -31 c-3 -5 -10 -7 -15 -3 -5 3 -7
10 -3 15 3 5 10 7 15 3 5 -3 7 -10 3 -15z m106 1 c0 -5 -4 -10 -10 -10 -5 0
-10 5 -10 10 0 6 5 10 10 10 6 0 10 -4 10 -10z m2511 -1 c-14 -5 -40 -19 -59
-31 l-34 -21 11 21 c15 28 40 41 76 41 30 0 30 0 6 -10z m-527 -78 c-24 -43
-44 -84 -44 -91 0 -6 -4 -8 -10 -5 -16 10 -12 78 6 103 12 17 75 66 91 71 1 1
-18 -35 -43 -78z m-2044 53 c0 -8 -5 -12 -10 -9 -6 4 -8 11 -5 16 9 14 15 11
15 -7z m1791 -31 c-6 -22 -23 -58 -38 -80 -71 -102 -73 -103 -81 -24 -4 42 -1
52 19 70 40 34 104 80 107 76 2 -2 -1 -21 -7 -42z m-1836 8 c3 -5 1 -12 -5
-16 -5 -3 -10 1 -10 9 0 18 6 21 15 7z m2379 -20 c-18 -11 -39 -30 -48 -42
-10 -14 -16 -18 -16 -9 0 22 51 70 74 70 17 0 16 -3 -10 -19z m701 -11 c-3 -5
-17 -10 -29 -10 -13 0 -42 -7 -65 -15 -48 -17 -46 0 3 21 37 16 100 19 91 4z
m42 4 c-3 -3 -12 -4 -19 -1 -8 3 -5 6 6 6 11 1 17 -2 13 -5z m-1151 -56 c-30
-75 -71 -148 -83 -148 -17 0 -17 89 -2 124 7 13 24 30 40 36 16 7 34 19 40 26
20 24 22 7 5 -38z m-289 -30 c-9 -52 -56 -159 -83 -188 -12 -12 -14 -2 -14 67
l0 81 51 46 c28 25 52 46 53 46 2 0 -2 -24 -7 -52z m1094 41 c-13 -5 -36 -18
-52 -30 -16 -11 -29 -16 -29 -11 0 15 62 52 85 51 18 0 17 -1 -4 -10z m-588
-21 c-11 -13 -32 -45 -46 -73 -20 -39 -26 -45 -27 -27 0 37 30 91 59 107 36
20 38 18 14 -7z m-2123 8 c0 -3 -4 -8 -10 -11 -5 -3 -10 -1 -10 4 0 6 5 11 10
11 6 0 10 -2 10 -4z m-40 -36 c0 -5 -2 -10 -4 -10 -3 0 -8 5 -11 10 -3 6 -1
10 4 10 6 0 11 -4 11 -10z m2505 -32 c-22 -24 -41 -45 -42 -47 -2 -2 -3 4 -3
13 0 20 52 76 71 76 7 0 -5 -19 -26 -42z m-706 -35 c-7 -39 -24 -83 -46 -118
-19 -31 -36 -55 -38 -53 -1 2 -5 31 -9 66 l-6 63 52 55 c28 30 53 53 54 51 2
-2 -1 -31 -7 -64z m529 0 c-9 -10 -25 -36 -36 -58 -20 -37 -21 -38 -22 -13 0
27 43 88 62 88 6 0 4 -8 -4 -17z m-399 -85 c-17 -46 -34 -87 -40 -92 -16 -18
-10 78 8 104 17 27 54 70 59 70 2 0 -10 -37 -27 -82z m-274 -63 c-9 -43 -23
-94 -29 -113 l-13 -36 -17 26 c-9 14 -19 42 -23 61 -4 30 1 44 38 96 55 77 67
68 44 -34z m470 5 c-8 -23 -15 -54 -16 -69 l-1 -26 -10 28 c-8 22 -5 36 12 73
27 55 36 52 15 -6z m-333 -66 c-23 -70 -38 -101 -43 -92 -12 19 -11 86 2 111
9 17 68 87 74 87 1 0 -14 -48 -33 -106z m164 -3 c-9 -16 -16 -41 -16 -56 0
-14 -5 -25 -11 -25 -16 0 -5 65 16 97 22 34 30 22 11 -16z m-419 -60 c-2 -31
-16 -83 -30 -116 l-25 -60 -13 30 c-19 49 -12 104 22 173 27 52 34 60 42 46 5
-9 7 -42 4 -73z m137 -106 c-27 -86 -27 -87 -39 -58 -34 80 -29 110 29 171
l31 33 3 -30 c2 -16 -9 -68 -24 -116z m161 75 c-8 -16 -15 -52 -15 -80 0 -49
-12 -66 -24 -34 -15 39 -3 87 32 127 22 25 25 21 7 -13z m-271 -240 l-18 -84
-18 39 c-27 58 -20 132 18 187 l29 43 3 -50 c2 -27 -5 -88 -14 -135z m386 126
c-6 -26 -7 -58 -4 -73 5 -18 4 -24 -5 -19 -14 9 -14 73 0 115 16 46 22 32 9
-23z m-211 2 c-7 -13 -13 -55 -13 -95 -1 -79 -16 -84 -37 -13 -11 35 -9 43 15
84 27 46 58 67 35 24z m-269 -207 c0 -101 -7 -161 -20 -161 -3 0 -17 22 -30
49 -26 56 -24 91 9 165 31 71 41 58 41 -53z m166 28 c-3 -34 -6 -82 -6 -105 0
-54 -13 -56 -39 -6 -16 31 -18 46 -10 87 9 47 32 85 52 85 6 0 7 -23 3 -61z
m211 -70 c14 -17 34 -131 22 -123 -5 2 -11 21 -15 42 -4 20 -15 47 -25 60 -26
34 -32 77 -17 119 l13 38 5 -61 c3 -34 10 -67 17 -75z m197 22 c17 -67 16 -88
-4 -52 -11 22 -27 130 -17 121 2 -3 12 -34 21 -69z m-338 -116 c-1 -93 -2 -95
-18 -74 -22 27 -24 99 -3 139 9 17 17 30 19 30 2 0 3 -43 2 -95z m-158 -50
c-1 -69 -7 -125 -11 -125 -4 0 -18 21 -29 47 -19 43 -20 54 -10 102 11 50 35
101 48 101 3 0 4 -56 2 -125z m-158 -51 c0 -69 -4 -124 -9 -124 -5 0 -22 25
-36 55 -21 41 -26 63 -21 87 9 46 46 119 57 112 5 -3 9 -61 9 -130z m2414 101
c129 -27 252 -129 318 -262 29 -59 33 -78 36 -167 5 -116 -15 -191 -72 -280
-137 -214 -442 -277 -651 -136 -132 90 -205 229 -205 392 0 212 143 396 353
453 68 18 136 18 221 0z m-1985 -177 c14 -40 7 -47 -14 -14 -20 30 -31 98 -20
123 6 13 10 6 16 -30 4 -27 12 -62 18 -79z m197 -25 c-10 -10 -27 40 -32 90
l-4 52 20 -69 c11 -38 19 -71 16 -73z m-372 -63 l7 -25 -25 28 c-35 38 -42 84
-20 133 l18 39 6 -75 c4 -42 10 -87 14 -100z m-167 17 c9 -112 5 -122 -30 -76
-28 39 -33 99 -11 159 23 65 31 51 41 -83z m292 -138 c11 -22 10 -22 -13 4
-34 37 -41 70 -25 120 l13 42 7 -71 c4 -39 12 -82 18 -95z m181 100 c0 -8 11
-38 25 -65 l24 -49 -25 30 c-31 37 -44 68 -44 103 0 21 2 24 10 12 5 -8 10
-22 10 -31z m-380 -46 c0 -27 9 -68 20 -92 26 -56 18 -64 -20 -20 -23 27 -29
44 -30 81 0 25 3 53 6 62 12 31 24 15 24 -31z m-138 -113 c11 -50 17 -95 13
-98 -4 -4 -20 8 -36 26 -33 37 -41 88 -24 161 10 40 25 11 47 -89z m498 -65
l24 -40 -23 20 c-33 29 -51 69 -50 112 l0 38 13 -45 c6 -26 23 -64 36 -85z
m-212 -35 c18 -37 18 -39 1 -29 -42 22 -63 93 -42 146 5 13 9 4 14 -30 4 -27
16 -66 27 -87z m-174 -30 c19 -68 20 -81 3 -74 -23 8 -47 72 -47 123 0 56 12
75 22 34 3 -15 13 -53 22 -83z m365 -84 c15 -18 15 -18 -4 -8 -35 18 -56 48
-61 88 l-5 39 27 -50 c14 -27 34 -59 43 -69z m192 -45 c6 -9 -2 -1 -20 17 -24
25 -31 41 -30 70 l0 37 20 -54 c10 -29 24 -61 30 -70z m-407 -16 c32 -42 33
-48 1 -33 -33 15 -65 67 -65 105 0 46 13 48 26 3 7 -22 24 -56 38 -75z m-204
17 c0 -9 14 -46 30 -80 17 -35 30 -66 30 -70 0 -11 -52 44 -66 70 -16 31 -19
112 -4 103 6 -3 10 -14 10 -23z m375 -54 c14 -29 33 -59 42 -65 16 -12 16 -13
0 -13 -33 0 -77 63 -77 111 0 30 7 23 35 -33z m3353 3 c39 -20 107 -85 83 -79
-7 2 -16 -3 -19 -11 -3 -8 0 -11 7 -7 6 4 11 3 11 -3 0 -5 -5 -13 -11 -17 -8
-4 -7 -9 2 -16 11 -7 11 -8 -1 -6 -8 2 -16 -1 -17 -5 -1 -4 -17 -21 -35 -37
-29 -27 -30 -29 -9 -25 13 2 20 1 17 -3 -8 -7 -13 -8 -42 -11 -9 -1 -12 -6 -8
-13 6 -10 4 -10 -8 0 -14 11 -16 10 -12 -10 2 -13 2 -17 -2 -10 -3 6 -10 12
-15 12 -6 0 -7 -6 -3 -12 5 -8 2 -8 -10 1 -9 8 -16 10 -15 5 4 -21 -2 -28 -11
-14 -7 11 -10 11 -10 2 0 -7 -4 -10 -10 -7 -6 3 -7 -1 -3 -10 3 -9 9 -13 12
-8 9 12 44 16 36 4 -3 -6 -13 -11 -21 -11 -9 0 -12 -5 -8 -12 4 -7 -3 -4 -16
7 -13 11 -20 14 -16 8 4 -7 3 -13 -1 -13 -5 0 -15 6 -22 13 -11 10 -11 8 -1
-12 10 -19 9 -22 -1 -16 -8 6 -11 4 -7 -7 4 -10 -1 -14 -22 -14 -16 0 -27 3
-25 7 3 4 -2 9 -10 12 -10 4 -12 1 -8 -10 5 -12 3 -14 -8 -8 -9 6 -8 0 5 -19
10 -17 13 -25 5 -20 -8 4 -22 9 -31 9 -14 1 -15 -1 -7 -12 8 -9 8 -13 1 -13
-6 0 -16 8 -22 18 -9 14 -10 13 -4 -7 4 -16 3 -21 -5 -17 -7 4 -9 1 -5 -7 3
-8 0 -18 -7 -23 -8 -4 -10 -3 -5 4 7 12 3 14 -31 15 -10 1 -22 7 -26 15 -7 11
-11 11 -25 0 -13 -11 -15 -11 -9 5 10 27 -1 20 -18 -13 -19 -37 -19 -54 0 -20
16 28 21 19 5 -10 -9 -16 -18 -18 -68 -13 -31 3 -63 5 -70 6 -7 0 -10 7 -7 16
5 12 2 12 -13 -2 -10 -9 -29 -17 -43 -17 -37 0 -120 -44 -156 -81 -43 -45 -65
-110 -61 -181 1 -32 5 -58 8 -58 9 0 30 -55 34 -88 2 -18 -1 -29 -6 -26 -5 3
-7 12 -4 20 6 16 1 17 -23 4 -14 -7 -24 -4 -40 11 -11 11 -21 15 -21 9 0 -5
-5 -10 -11 -10 -6 0 -8 9 -4 23 5 19 5 20 -5 4 -8 -13 -9 -22 -1 -31 6 -8 9
-21 5 -30 -3 -9 -2 -16 4 -16 13 0 24 29 15 42 -3 6 -1 8 5 4 6 -3 9 -19 7
-34 -2 -15 -4 -31 -4 -37 -1 -5 -6 -3 -11 5 -9 13 -11 13 -20 0 -7 -11 -9 -5
-6 21 4 32 1 38 -22 49 -15 6 -24 8 -20 4 4 -4 3 -13 -3 -21 -8 -8 -8 -13 -1
-13 6 0 12 6 15 13 2 6 8 8 13 4 5 -4 2 -12 -6 -18 -13 -8 -13 -10 0 -19 9 -6
10 -10 3 -10 -6 0 -15 5 -18 10 -5 8 -12 7 -23 -2 -15 -12 -16 -11 -3 5 8 10
9 17 3 17 -6 0 -14 -4 -17 -10 -6 -10 -53 14 -67 35 -5 7 -8 6 -8 -1 0 -6 17
-23 38 -38 25 -19 30 -26 15 -21 -19 5 -22 3 -17 -12 4 -13 3 -14 -3 -5 -5 7
-17 10 -26 6 -13 -4 -14 -10 -7 -24 7 -13 6 -21 -2 -26 -6 -4 -8 -3 -4 4 7 11
-21 45 -32 38 -4 -2 -7 13 -7 34 0 33 2 37 15 27 13 -11 13 -10 0 7 -8 10 -13
31 -12 45 6 46 -18 9 -35 -55 -33 -124 -13 -267 48 -356 22 -32 21 -32 -19 6
-65 62 -86 122 -87 241 0 55 3 123 7 150 6 41 5 45 -4 25 -6 -14 -10 -29 -9
-34 1 -5 -4 -4 -12 2 -16 13 -27 6 -26 -17 0 -12 3 -11 9 4 7 16 9 17 9 3 1
-9 3 -22 4 -30 2 -7 2 -10 0 -5 -3 4 -9 7 -14 7 -6 0 -7 -4 -4 -10 11 -18 -27
-11 -42 8 -13 15 -13 15 -3 -5 7 -16 7 -23 0 -23 -5 0 -10 -5 -10 -11 0 -5 4
-8 9 -4 5 3 12 1 15 -4 4 -5 -2 -8 -11 -6 -12 1 -17 10 -16 26 1 13 -1 18 -3
11 -3 -6 -10 -10 -15 -7 -5 4 -6 -2 -2 -12 6 -16 5 -17 -12 -3 -15 12 -17 12
-10 1 6 -11 4 -13 -8 -8 -10 3 -17 2 -17 -4 0 -6 -6 -7 -12 -3 -9 5 -8 2 1 -9
8 -10 11 -20 7 -24 -3 -3 -6 -1 -6 6 0 7 -5 9 -10 6 -6 -4 -8 -11 -5 -16 3 -5
-1 -6 -10 -3 -8 4 -23 0 -32 -7 -12 -10 -15 -10 -9 -1 4 6 3 12 -3 12 -5 0
-13 10 -16 21 -4 12 -10 17 -14 12 -3 -5 -15 -12 -26 -15 -11 -3 -29 -9 -39
-14 -14 -5 -17 -4 -12 4 4 7 2 12 -4 12 -7 0 -10 -6 -7 -12 2 -7 10 -13 18
-13 8 0 19 -7 26 -16 19 -25 170 -91 225 -98 28 -3 53 -10 54 -16 3 -9 -87
-75 -103 -75 -4 0 6 13 20 28 l28 29 -78 23 c-43 13 -80 22 -81 21 -2 -1 -10
6 -18 16 -9 12 -16 14 -21 7 -5 -6 -42 -29 -83 -52 l-75 -41 85 -40 c98 -47
94 -52 -12 -15 -40 14 -87 30 -105 36 -18 7 -29 16 -26 23 3 8 -7 16 -24 19
-16 4 -55 24 -87 45 -45 31 -62 37 -71 28 -7 -7 -11 -15 -9 -18 2 -3 -2 -6 -9
-6 -19 0 -107 -35 -107 -42 0 -4 39 -30 87 -59 48 -28 80 -52 72 -52 -25 0
-132 56 -194 102 -110 81 -115 83 -170 64 -27 -9 -57 -16 -67 -16 -39 0 -13
-30 86 -99 33 -23 56 -41 52 -41 -16 0 -122 63 -151 89 -58 53 -119 96 -133
93 -8 -2 -11 1 -7 8 4 7 -11 30 -36 56 l-43 44 -84 0 -83 0 22 -33 c13 -17 57
-65 98 -106 59 -58 68 -70 41 -55 -19 10 -75 59 -123 108 l-89 89 -74 6 c-41
4 -74 4 -74 0 0 -9 38 -58 79 -101 19 -21 31 -38 27 -38 -19 0 -69 45 -110 99
-38 48 -53 60 -90 70 -58 14 -69 31 -16 24 l40 -6 -42 73 c-27 46 -51 75 -67
82 -37 13 -113 59 -108 64 2 2 27 -5 56 -17 28 -12 54 -19 57 -16 3 3 -11 37
-30 75 -24 47 -43 73 -58 77 -40 12 -112 63 -141 100 -41 52 -24 56 26 8 41
-40 116 -87 125 -78 3 2 -1 25 -7 51 -17 65 -8 65 19 -1 12 -31 30 -60 39 -64
20 -11 131 -34 137 -29 2 2 -7 40 -21 84 -37 118 -31 145 14 68 12 -19 16 -32
9 -28 -7 5 -9 2 -6 -7 3 -8 13 -37 22 -66 9 -28 22 -56 29 -61 17 -14 157 -27
157 -15 0 5 -7 32 -15 59 -28 94 -14 78 49 -52 35 -73 87 -167 116 -210 90
-134 77 -123 148 -124 34 0 62 4 62 9 0 4 11 7 25 6 30 -4 34 15 4 22 -13 4
-16 8 -9 13 7 5 6 11 -6 21 -15 12 -17 12 -9 0 6 -10 4 -12 -4 -7 -7 5 -10 15
-7 23 5 11 2 13 -10 9 -12 -4 -15 -2 -10 9 3 8 1 15 -4 15 -5 0 -7 7 -4 15 4
8 1 15 -6 15 -7 0 -10 7 -6 15 3 9 0 15 -9 15 -8 0 -15 5 -15 11 0 5 5 7 10 4
6 -3 10 -1 10 4 0 6 -4 11 -10 11 -5 0 -10 9 -10 20 0 11 -4 20 -9 20 -15 0
-22 33 -10 44 8 8 10 7 7 -4 -2 -8 6 -25 19 -38 12 -12 30 -37 39 -55 25 -49
83 -127 130 -174 37 -38 46 -43 85 -42 38 0 102 16 74 18 -6 1 -16 11 -24 24
-14 22 -14 22 7 4 11 -11 25 -16 31 -12 7 3 8 0 5 -9 -3 -9 -2 -16 3 -16 22 0
8 40 -28 81 -21 24 -39 51 -39 59 -1 8 -8 3 -16 -12 -8 -16 -17 -28 -20 -28
-3 0 -2 5 1 11 4 5 9 25 11 42 3 27 1 26 -13 -13 -11 -29 -18 -39 -21 -27 -2
9 -8 17 -14 17 -5 0 -8 7 -4 15 5 15 -9 22 -17 8 -2 -5 -2 -2 -1 5 2 6 -1 12
-6 12 -6 0 -10 5 -10 10 0 6 13 4 30 -5 37 -19 37 -19 42 9 4 17 1 23 -9 19
-9 -4 -11 0 -7 13 5 18 5 18 -6 0 -10 -15 -9 -20 1 -27 8 -5 9 -9 3 -9 -5 0
-19 7 -30 16 -10 8 -13 13 -6 9 13 -7 17 10 5 18 -5 2 -2 2 5 1 6 -2 12 1 12
6 0 6 -4 10 -10 10 -5 0 -10 5 -10 11 0 5 5 7 10 4 6 -3 10 -2 10 4 0 5 -5 11
-12 13 -9 3 -9 6 0 12 8 5 24 -4 41 -23 16 -17 31 -26 33 -20 2 6 16 13 31 14
15 2 25 -1 21 -6 -3 -5 -10 -7 -15 -3 -10 6 -39 -13 -39 -25 0 -3 14 -22 31
-41 17 -19 43 -50 56 -67 14 -18 30 -30 36 -26 5 3 7 2 4 -4 -11 -18 36 -46
80 -48 24 -1 43 2 43 7 0 5 -6 8 -12 7 -7 -1 -29 0 -48 1 -25 2 -29 4 -12 7
23 5 31 22 10 24 -10 0 -10 2 0 6 24 9 12 22 -18 18 -17 -2 -28 0 -24 6 3 5
10 7 15 4 5 -4 17 -1 26 5 16 11 16 11 1 6 -10 -3 -20 -1 -22 3 -3 5 -17 7
-31 6 -14 -2 -23 0 -20 5 2 4 18 6 35 4 16 -2 30 1 30 7 0 6 -8 9 -17 8 -35
-3 -54 1 -48 11 4 6 11 8 16 5 5 -4 9 -1 9 5 0 6 -6 10 -12 9 -31 -4 -38 2
-36 31 2 28 24 41 40 24 4 -3 78 -8 165 -11 254 -8 507 34 723 119 l105 41 85
100 c190 224 275 298 399 347 63 25 188 40 177 22 -4 -7 -62 -49 -129 -95
-176 -119 -206 -141 -207 -149 0 -3 17 0 38 7 20 7 66 21 101 31 71 20 224
107 326 184 36 28 81 58 98 65 46 20 121 18 165 -4z m-3580 -69 c6 -21 28 -57
48 -80 21 -25 30 -42 22 -42 -22 0 -76 62 -83 95 -4 17 -9 38 -12 48 -9 35 14
16 25 -21z m442 -57 c9 -11 21 -27 26 -35 7 -13 4 -12 -16 1 -35 23 -70 77
-70 108 1 24 3 23 22 -14 11 -22 28 -49 38 -60z m-568 -67 c26 -51 45 -94 44
-96 -11 -10 -85 78 -95 113 -29 105 -8 97 51 -17z m386 -56 c46 -45 47 -45 12
-27 -69 34 -110 89 -110 142 1 25 3 24 26 -21 14 -26 47 -69 72 -94z m370 11
c13 -20 21 -37 19 -39 -8 -9 -56 54 -62 81 -6 33 -7 34 43 -42z m3009 51 c-3
-3 -12 -4 -19 -1 -8 3 -5 6 6 6 11 1 17 -2 13 -5z m-3165 -158 c38 -30 35 -32
-16 -11 -44 19 -66 51 -72 107 l-5 43 30 -57 c17 -31 45 -68 63 -82z m-396
-24 c39 -35 23 -36 -23 -2 -43 31 -73 82 -73 121 0 17 9 7 35 -37 20 -32 47
-69 61 -82z m-306 68 c8 -5 11 -10 5 -10 -5 0 -17 5 -25 10 -8 5 -10 10 -5 10
6 0 17 -5 25 -10z m414 -49 c14 -26 37 -62 51 -80 31 -35 20 -41 -19 -10 -30
24 -66 88 -66 119 0 31 7 25 34 -29z m3284 14 c-3 -3 -9 2 -12 12 -6 14 -5 15
5 6 7 -7 10 -15 7 -18z m-85 -32 c-3 -7 -6 -13 -8 -13 -2 0 -5 6 -8 13 -3 8 1
14 8 14 7 0 11 -6 8 -14z m-157 -63 c7 0 15 5 17 10 3 6 4 5 3 -2 -4 -19 -28
-21 -50 -5 -12 9 -16 19 -11 27 7 11 11 9 18 -8 6 -12 16 -22 23 -22z m-3106
-100 c18 -28 46 -61 64 -75 17 -14 25 -25 17 -25 -20 0 -131 113 -131 133 0
30 17 18 50 -33z m-132 -40 c14 -25 41 -66 60 -92 42 -60 28 -62 -26 -4 -39
42 -71 95 -93 153 l-10 27 22 -19 c11 -11 33 -40 47 -65z m2996 40 c15 0 66
-45 66 -58 0 -5 -30 -22 -67 -39 -74 -32 -133 -77 -133 -99 0 -19 -16 -18 -24
2 -11 28 -6 94 8 122 26 50 88 88 124 76 8 -2 19 -4 26 -4z m167 -60 c24 -45
24 -94 -1 -149 -23 -50 -36 -51 -19 -2 12 35 5 120 -13 155 -6 12 -20 32 -32
45 l-21 25 34 -20 c18 -10 42 -35 52 -54z m-2860 9 c6 -12 29 -41 51 -65 22
-24 36 -44 31 -44 -13 0 -113 106 -113 119 0 19 19 12 31 -10z m1189 -88 c0
-15 -5 -17 -27 -12 -26 5 -26 6 -5 9 12 2 22 8 22 13 0 5 2 9 5 9 3 0 5 -8 5
-19z m-1245 -87 c9 -14 33 -44 53 -66 24 -26 29 -37 16 -30 -25 13 -104 98
-104 112 0 18 17 10 35 -16z m1175 -32 c0 -5 -7 -17 -15 -28 -14 -18 -14 -17
-4 9 12 27 19 34 19 19z m-941 -74 c34 -39 58 -74 55 -77 -7 -7 -134 127 -134
140 0 22 24 4 79 -63z m961 52 c0 -5 -5 -10 -11 -10 -5 0 -7 5 -4 10 3 6 8 10
11 10 2 0 4 -4 4 -10z m134 -8 c3 -5 -1 -9 -9 -9 -8 0 -12 4 -9 9 3 4 7 8 9 8
2 0 6 -4 9 -8z m-94 -44 c0 -12 -6 -9 -26 13 -19 22 -19 22 4 8 12 -8 22 -17
22 -21z m-60 14 c0 -4 -9 -8 -20 -8 -11 0 -20 4 -20 8 0 4 9 8 20 8 11 0 20
-4 20 -8z m1347 -41 c0 -11 -5 -18 -9 -15 -4 3 -5 11 -1 19 7 21 12 19 10 -4z
m-107 -37 c0 -2 -8 0 -19 5 -10 6 -22 7 -26 3 -5 -4 -5 -1 -1 6 5 9 12 9 27 2
10 -6 19 -13 19 -16z m-50 -30 c0 -2 -9 0 -20 6 -11 6 -20 13 -20 16 0 2 9 0
20 -6 11 -6 20 -13 20 -16z m-486 -34 c-5 -5 -9 4 -10 23 -1 30 -1 30 9 9 6
-14 7 -26 1 -32z m-34 30 c5 9 9 8 13 -2 3 -9 -2 -14 -14 -15 -12 -1 -19 4
-18 15 0 12 2 13 6 3 4 -10 7 -10 13 -1z m-367 -116 c-7 -19 -10 -18 -16 5 -3
13 -1 18 9 14 7 -2 10 -11 7 -19z"/>
<path d="M2710 7860 c0 -5 5 -10 10 -10 6 0 10 5 10 10 0 6 -4 10 -10 10 -5 0
-10 -4 -10 -10z"/>
<path d="M2570 7730 c0 -5 5 -10 11 -10 5 0 7 5 4 10 -3 6 -8 10 -11 10 -2 0
-4 -4 -4 -10z"/>
<path d="M2600 7695 c0 -8 5 -15 10 -15 6 0 10 -7 10 -15 0 -8 7 -15 15 -15 8
0 15 7 15 15 0 8 -7 15 -15 15 -8 0 -15 7 -15 15 0 8 -4 15 -10 15 -5 0 -10
-7 -10 -15z"/>
<path d="M2470 7570 c0 -5 7 -10 16 -10 8 0 12 5 9 10 -3 6 -10 10 -16 10 -5
0 -9 -4 -9 -10z"/>
<path d="M2380 7470 c0 -5 5 -10 10 -10 6 0 10 5 10 10 0 6 -4 10 -10 10 -5 0
-10 -4 -10 -10z"/>
<path d="M2300 7382 c0 -10 33 -42 43 -42 4 0 7 5 7 10 0 6 -7 10 -15 10 -8 0
-14 5 -12 11 1 6 -4 14 -10 16 -7 3 -13 0 -13 -5z"/>
<path d="M2185 7261 c-3 -5 -1 -12 5 -16 5 -3 10 1 10 9 0 18 -6 21 -15 7z"/>
<path d="M2100 7150 c0 -5 5 -10 10 -10 6 0 10 5 10 10 0 6 -4 10 -10 10 -5 0
-10 -4 -10 -10z"/>
<path d="M2065 7130 c3 -5 8 -10 11 -10 2 0 4 5 4 10 0 6 -5 10 -11 10 -5 0
-7 -4 -4 -10z"/>
<path d="M2143 7116 c9 -7 17 -18 17 -25 0 -6 9 -11 21 -11 21 0 21 0 -2 25
-13 13 -31 25 -39 25 -12 -1 -12 -3 3 -14z"/>
<path d="M2097 7104 c-8 -8 1 -24 14 -24 5 0 9 7 9 15 0 15 -12 20 -23 9z"/>
<path d="M2047 7081 c-3 -12 -1 -21 3 -21 15 0 23 21 12 32 -6 6 -11 2 -15
-11z"/>
<path d="M2130 7067 c0 -19 16 -31 24 -18 3 5 -1 14 -9 21 -12 10 -15 10 -15
-3z"/>
<path d="M2007 7050 c3 -11 9 -17 15 -14 5 3 4 12 -3 20 -16 19 -18 18 -12 -6z"/>
<path d="M2080 7050 c0 -5 5 -10 10 -10 6 0 10 -7 10 -15 0 -8 5 -15 10 -15
17 0 11 25 -10 38 -12 7 -20 8 -20 2z"/>
<path d="M2040 7028 c0 -18 18 -34 28 -24 3 4 -2 14 -11 23 -16 16 -17 16 -17
1z"/>
<path d="M2007 6980 c-3 -11 0 -23 5 -27 7 -3 8 -1 4 5 -4 7 -2 12 3 12 6 0
11 7 11 15 0 22 -17 18 -23 -5z"/>
<path d="M2076 6992 c-3 -6 -1 -14 5 -17 15 -10 25 3 12 16 -7 7 -13 7 -17 1z"/>
<path d="M1960 6954 c0 -8 5 -12 10 -9 6 4 8 11 5 16 -9 14 -15 11 -15 -7z"/>
<path d="M2050 6960 c0 -5 5 -10 10 -10 6 0 10 5 10 10 0 6 -4 10 -10 10 -5 0
-10 -4 -10 -10z"/>
<path d="M2020 6929 c0 -8 -11 -9 -32 -5 -31 5 -32 5 -13 -9 11 -9 26 -13 33
-10 8 3 18 5 23 5 5 0 9 7 9 15 0 8 -4 15 -10 15 -5 0 -10 -5 -10 -11z"/>
<path d="M1910 6923 c1 -18 28 -44 35 -34 3 6 0 18 -9 26 -16 16 -26 19 -26 8z"/>
<path d="M2050 6890 c0 -11 5 -20 10 -20 6 0 10 9 10 20 0 11 -4 20 -10 20 -5
0 -10 -9 -10 -20z"/>
<path d="M1880 6886 c0 -9 5 -16 10 -16 6 0 10 4 10 9 0 6 -4 13 -10 16 -5 3
-10 -1 -10 -9z"/>
<path d="M2007 6872 c1 -8 3 -18 3 -23 0 -5 7 -9 15 -9 8 0 15 7 15 15 0 8 -6
15 -14 15 -8 0 -16 3 -19 8 -2 4 -2 1 0 -6z"/>
<path d="M1953 6855 c0 -8 4 -15 9 -15 4 0 8 7 8 15 0 8 -4 15 -8 15 -5 0 -9
-7 -9 -15z"/>
<path d="M1900 6850 c0 -5 5 -10 11 -10 5 0 7 5 4 10 -3 6 -8 10 -11 10 -2 0
-4 -4 -4 -10z"/>
<path d="M1858 6833 c7 -3 16 -2 19 1 4 3 -2 6 -13 5 -11 0 -14 -3 -6 -6z"/>
<path d="M1921 6814 c0 -11 3 -14 6 -6 3 7 2 16 -1 19 -3 4 -6 -2 -5 -13z"/>
<path d="M1980 6815 c0 -8 4 -15 9 -15 5 0 11 7 15 15 3 9 0 15 -9 15 -8 0
-15 -7 -15 -15z"/>
<path d="M1884 6780 c0 -11 6 -20 13 -20 15 0 15 2 7 24 -9 22 -20 20 -20 -4z"/>
<path d="M1950 6786 c0 -9 5 -16 10 -16 6 0 10 4 10 9 0 6 -4 13 -10 16 -5 3
-10 -1 -10 -9z"/>
<path d="M1780 6750 c0 -5 5 -10 10 -10 6 0 10 5 10 10 0 6 -4 10 -10 10 -5 0
-10 -4 -10 -10z"/>
<path d="M1916 6742 c-3 -6 1 -13 10 -16 23 -9 28 -2 10 13 -8 7 -17 8 -20 3z"/>
<path d="M1800 6720 c0 -5 7 -10 15 -10 8 0 15 5 15 10 0 6 -7 10 -15 10 -8 0
-15 -4 -15 -10z"/>
<path d="M1760 6690 c0 -5 5 -10 10 -10 6 0 10 5 10 10 0 6 -4 10 -10 10 -5 0
-10 -4 -10 -10z"/>
<path d="M1830 6680 c0 -5 7 -10 15 -10 8 0 15 5 15 10 0 6 -7 10 -15 10 -8 0
-15 -4 -15 -10z"/>
<path d="M1796 6661 c-3 -5 1 -11 9 -15 8 -3 15 -1 15 4 0 13 -18 22 -24 11z"/>
<path d="M1736 6635 c3 -7 14 -15 24 -18 12 -3 17 0 14 8 -3 7 -14 15 -24 18
-12 3 -17 0 -14 -8z"/>
<path d="M1830 6616 c0 -9 7 -16 16 -16 17 0 14 22 -4 28 -7 2 -12 -3 -12 -12z"/>
<path d="M1690 6610 c0 -5 5 -10 11 -10 5 0 7 5 4 10 -3 6 -8 10 -11 10 -2 0
-4 -4 -4 -10z"/>
<path d="M1785 6590 c3 -5 10 -10 16 -10 5 0 9 5 9 10 0 6 -7 10 -16 10 -8 0
-12 -4 -9 -10z"/>
<path d="M1689 6557 c26 -28 31 -32 31 -19 0 4 -13 16 -28 26 l-27 19 24 -26z"/>
<path d="M1747 6569 c7 -7 15 -10 18 -7 3 3 -2 9 -12 12 -14 6 -15 5 -6 -5z"/>
<path d="M1710 6475 c0 -8 4 -15 10 -15 5 0 7 7 4 15 -4 8 -8 15 -10 15 -2 0
-4 -7 -4 -15z"/>
<path d="M1630 6380 c0 -5 5 -10 11 -10 5 0 7 5 4 10 -3 6 -8 10 -11 10 -2 0
-4 -4 -4 -10z"/>
<path d="M1625 6310 c3 -5 8 -10 11 -10 2 0 4 5 4 10 0 6 -5 10 -11 10 -5 0
-7 -4 -4 -10z"/>
<path d="M1590 6290 c0 -5 5 -10 11 -10 5 0 7 5 4 10 -3 6 -8 10 -11 10 -2 0
-4 -4 -4 -10z"/>
<path d="M1575 6230 c3 -5 10 -10 16 -10 5 0 9 5 9 10 0 6 -7 10 -16 10 -8 0
-12 -4 -9 -10z"/>
<path d="M1550 6181 c0 -5 7 -11 15 -15 8 -3 15 -1 15 3 0 5 -7 11 -15 15 -8
3 -15 1 -15 -3z"/>
<path d="M1460 6020 c0 -5 9 -10 19 -10 11 0 23 -4 26 -10 3 -5 10 -10 16 -10
5 0 9 5 9 10 0 6 -7 10 -15 10 -8 0 -15 5 -15 10 0 6 -9 10 -20 10 -11 0 -20
-4 -20 -10z"/>
<path d="M1400 5841 c0 -6 5 -13 10 -16 6 -3 10 1 10 9 0 9 -4 16 -10 16 -5 0
-10 -4 -10 -9z"/>
<path d="M1426 5803 c-5 -6 18 -33 28 -33 3 0 6 6 6 14 0 15 -24 28 -34 19z"/>
<path d="M1410 5725 c0 -8 5 -15 10 -15 6 0 10 7 10 15 0 8 -4 15 -10 15 -5 0
-10 -7 -10 -15z"/>
<path d="M1360 5629 c0 -5 5 -7 10 -4 6 3 10 8 10 11 0 2 -4 4 -10 4 -5 0 -10
-5 -10 -11z"/>
<path d="M4586 8311 c-10 -11 -40 -29 -68 -41 -52 -22 -64 -23 -170 -1 -103
21 -194 -24 -242 -120 -95 -192 105 -358 297 -246 61 36 91 96 84 170 -2 28
-8 62 -12 74 -5 16 -2 23 15 28 33 11 89 64 111 106 10 21 19 41 19 44 0 11
-18 4 -34 -14z m-240 -127 c69 -33 99 -143 53 -195 -19 -22 -20 -23 -14 -3 15
55 -83 130 -167 128 -27 0 -48 2 -48 6 0 16 36 54 64 66 41 18 71 17 112 -2z"/>
<path d="M3921 7887 c-13 -17 -69 -34 -135 -42 -77 -10 -127 -78 -77 -105 26
-13 31 -13 31 4 0 20 7 23 64 30 27 4 62 16 77 27 25 17 69 77 69 93 0 11 -17
7 -29 -7z"/>
<path d="M6640 6606 c0 -2 7 -7 16 -10 8 -3 12 -2 9 4 -6 10 -25 14 -25 6z"/>
<path d="M2724 2644 c3 -7 0 -15 -7 -18 -7 -2 -5 -5 4 -5 9 -1 19 7 21 17 3
12 0 19 -9 19 -8 0 -12 -6 -9 -13z"/>
<path d="M6440 2606 c-51 -21 -144 -76 -138 -81 4 -3 146 13 180 20 24 6 28
11 28 40 0 19 -3 36 -8 38 -4 3 -32 -5 -62 -17z"/>
<path d="M6440 2489 c0 -5 -4 -7 -10 -4 -6 3 -7 -1 -4 -9 9 -22 19 -20 21 4 1
11 0 20 -3 20 -2 0 -4 -5 -4 -11z"/>
<path d="M6285 2409 c-3 -4 2 -6 10 -5 21 3 28 13 10 13 -9 0 -18 -4 -20 -8z"/>
<path d="M6130 2381 c0 -7 -5 -9 -12 -5 -7 5 -8 3 -3 -5 5 -9 10 -10 18 -2 6
6 8 14 4 18 -4 3 -7 1 -7 -6z"/>
<path d="M6170 2370 c-6 -11 -8 -20 -6 -20 3 0 10 9 16 20 6 11 8 20 6 20 -3
0 -10 -9 -16 -20z"/>
<path d="M3559 2203 c44 -111 42 -110 159 -128 l43 -7 -33 69 c-18 37 -33 69
-34 71 0 1 -28 9 -60 17 -32 9 -67 18 -77 21 -16 5 -16 2 2 -43z"/>
<path d="M3745 2166 c8 -19 24 -50 36 -70 l21 -36 84 0 84 0 -35 55 c-19 30
-35 59 -35 65 0 5 -6 10 -12 11 -7 0 -45 2 -85 4 l-71 4 13 -33z"/>
<path d="M4550 2100 c0 -5 5 -10 10 -10 6 0 10 5 10 10 0 6 -4 10 -10 10 -5 0
-10 -4 -10 -10z"/>
<path d="M4604 2079 c0 -22 12 -25 19 -5 3 8 0 16 -6 19 -7 3 -13 -3 -13 -14z"/>
<path d="M3630 2055 c0 -17 77 -136 90 -139 8 -3 46 -8 84 -12 57 -5 67 -4 60
7 -5 8 -26 40 -47 71 -38 55 -40 57 -101 67 -71 12 -86 13 -86 6z"/>
<path d="M3820 2034 c0 -12 58 -99 79 -118 20 -18 85 -27 138 -19 l32 5 -42
64 -42 63 -67 0 c-36 1 -73 4 -82 7 -9 3 -16 3 -16 -2z"/>
<path d="M4395 2030 c3 -5 8 -10 11 -10 2 0 4 5 4 10 0 6 -5 10 -11 10 -5 0
-7 -4 -4 -10z"/>
<path d="M5777 2019 c7 -7 15 -10 18 -7 3 3 -2 9 -12 12 -14 6 -15 5 -6 -5z"/>
<path d="M5720 2013 c0 -5 13 -17 28 -27 l27 -19 -24 26 c-26 28 -31 32 -31
20z"/>
<path d="M5700 1991 c0 -8 -6 -11 -16 -7 -14 6 -15 4 -4 -9 12 -15 14 -15 23
0 5 9 6 19 3 22 -3 4 -6 1 -6 -6z"/>
<path d="M5781 1978 c5 -10 7 -23 4 -28 -3 -6 1 -7 10 -4 11 5 13 10 6 17 -5
5 -7 15 -5 22 3 6 -2 12 -10 12 -11 0 -13 -5 -5 -19z"/>
<path d="M4657 1984 c-8 -8 3 -34 15 -34 6 0 6 6 -1 14 -9 11 -9 15 1 19 7 3
8 6 2 6 -6 1 -13 -2 -17 -5z"/>
<path d="M4715 1981 c-3 -5 -2 -12 3 -15 5 -3 9 1 9 9 0 17 -3 19 -12 6z"/>
<path d="M4690 1962 c0 -4 10 -13 23 -21 22 -14 22 -14 3 8 -20 22 -26 25 -26
13z"/>
<path d="M4740 1951 c0 -6 4 -13 10 -16 6 -3 7 1 4 9 -7 18 -14 21 -14 7z"/>
<path d="M5580 1958 c0 -2 11 -14 24 -25 l24 -21 19 21 c10 11 13 17 6 14 -6
-4 -13 -4 -16 0 -2 5 -2 2 -1 -4 4 -17 -2 -16 -31 3 -14 9 -25 14 -25 12z"/>
<path d="M4736 1904 c-9 -22 14 -50 26 -32 6 11 10 11 17 0 6 -11 10 -10 15 4
3 9 4 19 1 22 -3 3 -5 -1 -5 -8 0 -9 -8 -6 -24 9 -21 20 -24 20 -30 5z m24
-14 c0 -5 -2 -10 -4 -10 -3 0 -8 5 -11 10 -3 6 -1 10 4 10 6 0 11 -4 11 -10z"/>
<path d="M4550 1903 c0 -7 4 -13 9 -13 5 0 11 -8 13 -18 4 -13 -1 -18 -16 -20
-13 -1 -16 2 -9 6 7 5 -5 8 -27 8 -22 0 -40 -4 -40 -10 0 -6 -5 -4 -10 4 -5 8
-10 10 -10 3 0 -6 -9 -9 -22 -6 -21 4 -22 3 -5 -10 9 -8 17 -17 17 -19 0 -9
78 -84 105 -102 31 -21 36 -20 93 6 47 22 82 48 64 48 -8 0 -32 19 -89 70 -12
11 -25 20 -29 20 -3 0 -14 10 -25 23 -10 12 -18 16 -19 10z m-10 -66 c12 -4
11 -6 -2 -6 -10 -1 -18 -6 -18 -12 0 -6 -7 -4 -15 5 -17 17 -20 30 -5 21 6 -3
10 0 10 7 0 9 3 9 8 2 4 -6 14 -14 22 -17z m57 1 c-3 -8 -6 -5 -6 6 -1 11 2
17 5 13 3 -3 4 -12 1 -19z m-53 -36 c3 -5 -1 -9 -9 -9 -8 0 -12 4 -9 9 3 4 7
8 9 8 2 0 6 -4 9 -8z m46 -42 c0 -5 -2 -10 -4 -10 -3 0 -8 5 -11 10 -3 6 -1
10 4 10 6 0 11 -4 11 -10z"/>
<path d="M4682 1860 c36 -34 61 -50 79 -50 28 0 54 21 41 35 -4 5 -1 5 5 1 17
-9 50 8 34 18 -6 4 -11 2 -11 -4 0 -6 -5 -8 -11 -4 -8 4 -8 9 0 17 6 6 11 15
11 20 0 5 -9 -2 -21 -16 -25 -32 -49 -30 -91 6 -17 15 -33 25 -37 21 -3 -4 0
-9 7 -11 6 -3 12 -9 12 -14 0 -4 -7 -6 -15 -3 -8 4 -15 12 -15 20 0 8 -9 14
-20 14 -16 0 -10 -10 32 -50z m58 -21 c0 -4 -7 -6 -15 -3 -8 4 -15 10 -15 15
0 4 7 6 15 3 8 -4 15 -10 15 -15z"/>
<path d="M5567 1896 c-4 -10 -1 -13 8 -9 8 3 12 9 9 14 -7 12 -11 11 -17 -5z"/>
<path d="M4266 1874 c-12 -12 -16 -12 -16 -2 0 8 -3 9 -8 3 -8 -11 -34 -14
-42 -4 -3 3 -16 3 -30 -1 -23 -5 -21 -8 42 -73 73 -75 64 -73 176 -39 l52 16
-41 39 c-33 32 -43 37 -50 26 -8 -11 -9 -9 -7 6 2 12 -2 19 -9 18 -7 -2 -13 4
-13 12 0 20 -34 19 -54 -1z"/>
<path d="M5535 1880 c-3 -5 -1 -10 4 -10 6 0 11 5 11 10 0 6 -2 10 -4 10 -3 0
-8 -4 -11 -10z"/>
<path d="M5116 1872 c-3 -5 1 -9 9 -9 8 0 12 4 9 9 -3 4 -7 8 -9 8 -2 0 -6 -4
-9 -8z"/>
<path d="M5170 1871 c0 -6 4 -13 10 -16 6 -3 7 1 4 9 -7 18 -14 21 -14 7z"/>
<path d="M5204 1844 c-18 -14 -18 -15 4 -4 12 6 22 13 22 15 0 8 -5 6 -26 -11z"/>
<path d="M4845 1813 c11 -10 18 -17 16 -16 -2 1 -12 -2 -22 -7 -11 -7 -20 -7
-24 0 -3 5 -12 7 -21 3 -17 -6 129 -113 155 -113 9 1 30 9 47 18 17 9 47 26
66 36 22 12 34 24 31 32 -3 8 -9 11 -14 8 -5 -3 -9 0 -9 6 0 6 -4 8 -10 5 -5
-3 -10 -1 -10 5 0 6 -4 9 -9 6 -5 -4 -11 -1 -13 6 -3 7 -7 5 -11 -6 -4 -9 -3
-15 2 -11 5 3 12 1 15 -4 4 -5 -2 -8 -11 -6 -10 1 -23 -2 -29 -6 -7 -6 -16 -3
-24 6 -15 18 -34 20 -24 3 5 -9 2 -9 -9 1 -9 7 -17 10 -17 6 0 -4 -6 -2 -13 4
-8 6 -17 8 -20 4 -4 -3 -7 -2 -7 4 0 5 -12 15 -27 22 -27 11 -28 11 -8 -6z"/>
<path d="M4902 1822 c-18 -12 6 -31 33 -26 11 1 27 -4 36 -12 14 -12 19 -13
25 -2 11 17 17 57 7 42 -8 -11 -46 -11 -73 0 -8 3 -21 2 -28 -2z m94 -24 c3
-4 -1 -5 -10 -4 -8 1 -18 5 -22 8 -3 4 1 5 10 4 8 -1 18 -5 22 -8z"/>
</g>
</svg>
